<?xml version="1.0" encoding="UTF-8"?>
<svg width="18px" height="15px" viewBox="0 0 18 15" version="1.1" xmlns="http://www.w3.org/2000/svg" xmlns:xlink="http://www.w3.org/1999/xlink">
    <!-- Generator: Sketch 56.3 (81716) - https://sketch.com -->
    <title>Icons / Menu - Style 1</title>
    <desc>Created with Sketch.</desc>
    <defs>
        <path d="M6.33561644,7 L21.6643836,7 C22.4020242,7 23,7.59797585 23,8.33561644 C23,9.07325703 22.4020242,9.67123288 21.6643836,9.67123288 L6.33561644,9.67123288 C5.59797585,9.67123288 5,9.07325703 5,8.33561644 C5,7.59797585 5.59797585,7 6.33561644,7 Z M6.33561644,13.1643836 L21.6643836,13.1643836 C22.4020242,13.1643836 23,13.7623594 23,14.5 C23,15.2376406 22.4020242,15.8356164 21.6643836,15.8356164 L6.33561644,15.8356164 C5.59797585,15.8356164 5,15.2376406 5,14.5 C5,13.7623594 5.59797585,13.1643836 6.33561644,13.1643836 Z M6.33561644,19.3287671 L21.6643836,19.3287671 C22.4020242,19.3287671 23,19.926743 23,20.6643836 C23,21.4020242 22.4020242,22 21.6643836,22 L6.33561644,22 C5.59797585,22 5,21.4020242 5,20.6643836 C5,19.926743 5.59797585,19.3287671 6.33561644,19.3287671 Z" id="path-1"></path>
    </defs>
    <g id="AEB-APP" stroke="none" stroke-width="1" fill="none" fill-rule="evenodd">
        <g id="10.-News---list" transform="translate(-19.000000, -54.000000)">
            <g id="Icons-/-Menu---Style-1" transform="translate(14.000000, 47.000000)">
                <mask id="mask-2" fill="white">
                    <use xlink:href="#path-1"></use>
                </mask>
                <use id="Filters" fill="#000000" fill-rule="evenodd" xlink:href="#path-1"></use>
            </g>
        </g>
    </g>
</svg>