<?xml version="1.0" encoding="UTF-8"?>
<svg width="22px" height="23px" viewBox="0 0 22 23" version="1.1" xmlns="http://www.w3.org/2000/svg" xmlns:xlink="http://www.w3.org/1999/xlink">
    <!-- Generator: Sketch 57.1 (83088) - https://sketch.com -->
    <title>Icons / Filled / Comment</title>
    <desc>Created with Sketch.</desc>
    <g id="AEB-APP" stroke="none" stroke-width="1" fill="none" fill-rule="evenodd">
        <g id="50.-Events---full" transform="translate(-307.000000, -394.000000)" fill="#F8F9FB">
            <g id="Icons-/-Line-/-Calendar" transform="translate(303.000000, 391.000000)">
                <path d="M5.93406593,4.82142857 L9.64285714,4.82142857 L9.64285714,8.4375 L5.93406593,8.4375 L5.93406593,4.82142857 Z M10.467033,4.82142857 L14.5879121,4.82142857 L14.5879121,8.4375 L10.467033,8.4375 L10.467033,4.82142857 Z M5.93406593,9.24107143 L9.64285714,9.24107143 L9.64285714,13.2589286 L5.93406593,13.2589286 L5.93406593,9.24107143 Z M10.467033,9.24107143 L14.5879121,9.24107143 L14.5879121,13.2589286 L10.467033,13.2589286 L10.467033,9.24107143 Z M5.93406593,14.0625 L9.64285714,14.0625 L9.64285714,17.6785714 L5.93406593,17.6785714 L5.93406593,14.0625 Z M15.4120879,4.82142857 L19.532967,4.82142857 L19.532967,8.4375 L15.4120879,8.4375 L15.4120879,4.82142857 Z M10.467033,14.0625 L14.5879121,14.0625 L14.5879121,17.6785714 L10.467033,17.6785714 L10.467033,14.0625 Z M20.3571429,4.82142857 L24.0659341,4.82142857 L24.0659341,8.4375 L20.3571429,8.4375 L20.3571429,4.82142857 Z M15.4120879,9.24107143 L19.532967,9.24107143 L19.532967,13.2589286 L15.4120879,13.2589286 L15.4120879,9.24107143 Z M10.8791209,20.0892857 L10.8791209,23.7053571 C10.8791209,23.8141741 10.8383413,23.9083426 10.7567823,23.9878627 C10.6752232,24.0673828 10.5786401,24.1071429 10.467033,24.1071429 L9.64285714,24.1071429 C9.53125,24.1071429 9.4346669,24.0673828 9.35310783,23.9878627 C9.27154876,23.9083426 9.23076923,23.8141741 9.23076923,23.7053571 L9.23076923,20.0892857 C9.23076923,19.9804688 9.27154876,19.8863002 9.35310783,19.8067801 C9.4346669,19.72726 9.53125,19.6875 9.64285714,19.6875 L10.467033,19.6875 C10.5786401,19.6875 10.6752232,19.72726 10.7567823,19.8067801 C10.8383413,19.8863002 10.8791209,19.9804688 10.8791209,20.0892857 Z M20.3571429,9.24107143 L24.0659341,9.24107143 L24.0659341,13.2589286 L20.3571429,13.2589286 L20.3571429,9.24107143 Z M15.4120879,14.0625 L19.532967,14.0625 L19.532967,17.6785714 L15.4120879,17.6785714 L15.4120879,14.0625 Z M20.3571429,14.0625 L24.0659341,14.0625 L24.0659341,17.6785714 L20.3571429,17.6785714 L20.3571429,14.0625 Z M20.7692308,20.0892857 L20.7692308,23.7053571 C20.7692308,23.8141741 20.7284512,23.9083426 20.6468922,23.9878627 C20.5653331,24.0673828 20.46875,24.1071429 20.3571429,24.1071429 L19.532967,24.1071429 C19.4213599,24.1071429 19.3247768,24.0673828 19.2432177,23.9878627 C19.1616587,23.9083426 19.1208791,23.8141741 19.1208791,23.7053571 L19.1208791,20.0892857 C19.1208791,19.9804688 19.1616587,19.8863002 19.2432177,19.8067801 C19.3247768,19.72726 19.4213599,19.6875 19.532967,19.6875 L20.3571429,19.6875 C20.46875,19.6875 20.5653331,19.72726 20.6468922,19.8067801 C20.7284512,19.8863002 20.7692308,19.9804688 20.7692308,20.0892857 Z M25.7142857,20.8928571 L25.7142857,4.82142857 C25.7142857,4.38616071 25.5511676,4.00948661 25.2249313,3.69140625 C24.8986951,3.37332589 24.5123626,3.21428571 24.0659341,3.21428571 L5.93406593,3.21428571 C5.48763736,3.21428571 5.10130495,3.37332589 4.77506868,3.69140625 C4.44883242,4.00948661 4.28571429,4.38616071 4.28571429,4.82142857 L4.28571429,20.8928571 C4.28571429,21.328125 4.44883242,21.7047991 4.77506868,22.0228795 C5.10130495,22.3409598 5.48763736,22.5 5.93406593,22.5 L7.58241758,22.5 L7.58241758,23.7053571 C7.58241758,24.2578125 7.78416896,24.7307478 8.1876717,25.1241629 C8.59117445,25.5175781 9.07623626,25.7142857 9.64285714,25.7142857 L10.467033,25.7142857 C11.0336538,25.7142857 11.5187157,25.5175781 11.9222184,25.1241629 C12.3257212,24.7307478 12.5274725,24.2578125 12.5274725,23.7053571 L12.5274725,22.5 L17.4725275,22.5 L17.4725275,23.7053571 C17.4725275,24.2578125 17.6742788,24.7307478 18.0777816,25.1241629 C18.4812843,25.5175781 18.9663462,25.7142857 19.532967,25.7142857 L20.3571429,25.7142857 C20.9237637,25.7142857 21.4088255,25.5175781 21.8123283,25.1241629 C22.215831,24.7307478 22.4175824,24.2578125 22.4175824,23.7053571 L22.4175824,22.5 L24.0659341,22.5 C24.5123626,22.5 24.8986951,22.3409598 25.2249313,22.0228795 C25.5511676,21.7047991 25.7142857,21.328125 25.7142857,20.8928571 Z" id="path3029" transform="translate(15.000000, 14.464286) rotate(-180.000000) translate(-15.000000, -14.464286) "></path>
            </g>
        </g>
    </g>
</svg>