<?xml version="1.0" encoding="UTF-8"?>
<svg width="18px" height="18px" viewBox="0 0 18 18" version="1.1" xmlns="http://www.w3.org/2000/svg" xmlns:xlink="http://www.w3.org/1999/xlink">
    <!-- Generator: Sketch 56.3 (81716) - https://sketch.com -->
    <title>Icons / Close</title>
    <desc>Created with Sketch.</desc>
    <defs>
        <path d="M15.7568,14 L22.6364,7.1204 C23.1212,6.6356 23.1212,5.8484 22.6364,5.3636 C22.1516,4.8788 21.3644,4.8788 20.8796,5.3636 L14,12.2432 L7.1204,5.3636 C6.6356,4.8788 5.8484,4.8788 5.3636,5.3636 C4.8788,5.8484 4.8788,6.6356 5.3636,7.1204 L12.2432,14 L5.3636,20.8796 C4.8788,21.3644 4.8788,22.1516 5.3636,22.6364 C5.8484,23.1212 6.6356,23.1212 7.1204,22.6364 L14,15.7568 L20.8796,22.6364 C21.3644,23.1212 22.1516,23.1212 22.6364,22.6364 C23.1212,22.1516 23.1212,21.3644 22.6364,20.8796 L15.7568,14 Z" id="path-1"></path>
    </defs>
    <g id="AEB-APP" stroke="none" stroke-width="1" fill="none" fill-rule="evenodd">
        <g id="04.-Menu---Signed-IN" transform="translate(-179.000000, -702.000000)">
            <g id="Icons-/-Close" transform="translate(174.000000, 697.000000)">
                <mask id="mask-2" fill="white">
                    <use xlink:href="#path-1"></use>
                </mask>
                <use id="Shape" fill="#FFFFFF" fill-rule="evenodd" xlink:href="#path-1"></use>
            </g>
        </g>
    </g>
</svg>
