<?xml version="1.0" encoding="UTF-8"?>
<svg width="12px" height="18px" viewBox="0 0 12 18" version="1.1" xmlns="http://www.w3.org/2000/svg" xmlns:xlink="http://www.w3.org/1999/xlink">
    <!-- Generator: Sketch 56.3 (81716) - https://sketch.com -->
    <title>Icons / Filled / Menu Copy 2</title>
    <desc>Created with Sketch.</desc>
    <g id="AEB-APP" stroke="none" stroke-width="1" fill="none" fill-rule="evenodd">
        <g id="11.-News---full" transform="translate(-300.000000, -53.000000)" fill="#FFFFFF">
            <g id="Nav-bar">
                <g id="Icons-/-Filled-/-Bookmark" transform="translate(294.000000, 50.000000)">
                    <path d="M16.08,20.2580374 L12.795,17.1292997 C12.3557737,16.7114869 11.6442263,16.7114869 11.205,17.1292997 L7.92,20.2580374 C7.59826977,20.5640827 7.11473688,20.6555703 6.69461473,20.4898883 C6.27449258,20.3242063 6.00039995,19.9339368 6,19.5008543 L6,5.21438064 C6,4.22810545 6.83946609,3.42857143 7.875,3.42857143 L16.125,3.42857143 C17.1605339,3.42857143 18,4.22810545 18,5.21438064 L18,19.5008543 C17.9996,19.9339368 17.7255074,20.3242063 17.3053853,20.4898883 C16.8852631,20.6555703 16.4017302,20.5640827 16.08,20.2580374 Z" id="13-Bookmark"></path>
                </g>
            </g>
        </g>
    </g>
</svg>
