<svg xmlns="http://www.w3.org/2000/svg" viewBox="0 0 298 85"><defs><style>.cls-1{fill:#fff;}.cls-2{fill:#ff0;}</style></defs><g id="Layer_1" data-name="Layer 1"><g id="Symbols"><g id="Logo-_-White" data-name="Logo-/-White"><g id="AEB_25_color" data-name="AEB 25 color"><g id="AEB-_-Stars" data-name="AEB-+-Stars"><path class="cls-1" d="M143.42,47a1.72,1.72,0,0,0,.07,1c.23.31.77.23,1,.23h4.92a2.34,2.34,0,0,0,1.84-.61,3.15,3.15,0,0,0,.62-1.67,3.21,3.21,0,0,0-.16-1.67,1.83,1.83,0,0,0-1.61-.68h-6.3L143.42,47Zm.76-5.78h6a2,2,0,0,0,1.76-.61c.16-.15.39-.53.54-1.67a2.06,2.06,0,0,0-.31-1.74,1.7,1.7,0,0,0-1.46-.46h-5.07a.81.81,0,0,0-1,.84Zm8.07-6.84a3.47,3.47,0,0,1,2.84,1,4.69,4.69,0,0,1,.62,3.5,3.84,3.84,0,0,1-1.08,2.66,2.55,2.55,0,0,1-1.69.83v.08a2.5,2.5,0,0,1,1.69.83,3.52,3.52,0,0,1,.39,2.89,5.47,5.47,0,0,1-1.39,3.42,3.9,3.9,0,0,1-3.15,1.06h-7.83c-.85,0-1.62.08-2.15-.68a2.29,2.29,0,0,1-.39-1.67l1.46-11.63a3.08,3.08,0,0,1,.69-1.67,2.36,2.36,0,0,1,1.85-.68h8.14Z"/><path class="cls-1" d="M127.36,50.63a2.34,2.34,0,0,1-1.85-.53,2.4,2.4,0,0,1-.38-1.9l1.46-11.55a2.84,2.84,0,0,1,.77-1.67,2.67,2.67,0,0,1,2.07-.61H140l-.31,2.44h-8.91a1.15,1.15,0,0,0-.85.22,1.28,1.28,0,0,0-.38.76l-.38,3.27h9.75l-.3,2.43h-9.76l-.46,3.8c0,.23,0,.53.15.61a1.61,1.61,0,0,0,1,.23h8.76L138,50.56h-10.6"/><path class="cls-1" d="M112.61,44.33h6.3l-1.85-6.61c-.07-.23-.15-.69-.38-.69s-.46.46-.54.69l-3.53,6.61Zm1.46-8.28A2.88,2.88,0,0,1,117,34.22a2.16,2.16,0,0,1,2.45,1.83l4.38,14.58h-3.3l-1.15-4.1h-7.92l-2.15,4.1H106Z"/><polyline class="cls-2" points="143.03 22.07 145.49 20.39 147.64 22.07 147.1 19.41 149.64 17.73 146.72 17.73 146.18 15 144.95 17.73 142.11 17.73 144.18 19.41 143.03 22.07"/><polyline class="cls-2" points="130.59 25.26 133.12 23.59 135.27 25.26 134.73 22.6 137.27 20.93 134.35 20.93 133.81 18.19 132.58 20.93 129.66 20.93 131.81 22.6 130.59 25.26"/><polyline class="cls-2" points="129.28 62.03 128.74 59.3 127.51 62.03 124.59 62.03 126.74 63.7 125.51 66.36 128.05 64.69 130.2 66.36 129.59 63.7 132.2 62.03 129.28 62.03"/><polyline class="cls-2" points="140.88 65.14 140.34 62.41 139.11 65.14 136.19 65.14 138.34 66.82 137.12 69.55 139.65 67.88 141.72 69.55 141.19 66.82 143.72 65.14 140.88 65.14"/><polyline class="cls-2" points="153.25 62.03 152.71 59.3 151.48 62.03 148.56 62.03 150.71 63.7 149.49 66.36 152.02 64.69 154.09 66.36 153.56 63.7 156.09 62.03 153.25 62.03"/><polyline class="cls-2" points="163.08 53.29 162.55 50.56 161.32 53.29 158.4 53.29 160.55 54.96 159.32 57.7 161.85 56.03 164 57.7 163.39 54.96 166 53.29 163.08 53.29"/><polyline class="cls-2" points="170.61 41.44 167.77 41.44 167.23 38.7 166 41.44 163.08 41.44 165.24 43.11 164 45.77 166.54 44.1 168.62 45.77 168.08 43.11 170.61 41.44"/><polyline class="cls-2" points="162.31 33.92 164.85 32.25 166.93 33.92 166.39 31.26 168.92 29.59 166 29.59 165.47 26.85 164.24 29.59 161.39 29.59 163.54 31.26 162.31 33.92"/><polyline class="cls-2" points="157.78 18.19 156.55 20.93 153.71 20.93 155.86 22.6 154.63 25.26 157.17 23.59 159.24 25.26 158.7 22.6 161.24 20.93 158.32 20.93 157.78 18.19"/></g><g id="Businesses"><path class="cls-1" d="M205.55,54.59a3.29,3.29,0,0,1,2.34.73,3.92,3.92,0,0,1,.84,2.63,2.55,2.55,0,0,1-.61,2,1.83,1.83,0,0,1-1.21.66v.07a2.48,2.48,0,0,1,1.44.66,3.1,3.1,0,0,1,.6,2.2,3.34,3.34,0,0,1-.75,2.56,2.75,2.75,0,0,1-2.35.81h-6a2,2,0,0,1-1.74-.52,1.63,1.63,0,0,1-.45-1.24V56.34A2.24,2.24,0,0,1,198,55.1a1.7,1.7,0,0,1,1.37-.51ZM200,59.78h4.69a1.43,1.43,0,0,0,1.29-.44,1.92,1.92,0,0,0,.3-1.24,1.57,1.57,0,0,0-.46-1.32,1.76,1.76,0,0,0-1.21-.29h-3.93a.64.64,0,0,0-.53.15.75.75,0,0,0-.15.51v2.63Zm0,4.4a1.38,1.38,0,0,0,.15.73,1.12,1.12,0,0,0,.76.22h3.78c.38,0,1.06,0,1.36-.44a1.83,1.83,0,0,0,.3-1.25,1.93,1.93,0,0,0-.3-1.24,1.48,1.48,0,0,0-1.28-.51h-4.85v2.49Z"/><path class="cls-1" d="M218.71,66.59a2.2,2.2,0,0,1-1.51.37h-3.41a3.28,3.28,0,0,1-2.49-.73,3.15,3.15,0,0,1-1-2.71V57.66h2.12v5.49c0,.81.08,1.32.38,1.61a2,2,0,0,0,1.74.59h1.74a.81.81,0,0,0,.61-.22.79.79,0,0,0,.15-.59v-7h2.11v7.68A1.29,1.29,0,0,1,218.71,66.59Z"/><path class="cls-1" d="M220.53,65.35H226a.67.67,0,0,0,.68-.29,1,1,0,0,0,.15-.59.79.79,0,0,0-.3-.73c-.15-.15-.38-.22-1.74-.59l-1.89-.51a4,4,0,0,1-2.12-1.1,2.61,2.61,0,0,1-.45-1.61,2.25,2.25,0,0,1,2.8-2.42h5.44v1.61H223.4a1.39,1.39,0,0,0-.76.15.91.91,0,0,0-.3.66.74.74,0,0,0,.3.73,4.3,4.3,0,0,0,1.21.51l2.05.59a6.13,6.13,0,0,1,2.42,1,2.57,2.57,0,0,1,.6,1.68,2,2,0,0,1-2.34,2.34h-6.13V65.35Z"/><path class="cls-1" d="M230.28,56.27V54.66h2.12v1.61Zm0,1.32h2.12v9.3h-2.12Z"/><path class="cls-1" d="M233.84,59.05a1.36,1.36,0,0,1,.3-1,1.87,1.87,0,0,1,1.44-.44H239a4.06,4.06,0,0,1,2.73.73,2.93,2.93,0,0,1,.9,2.42v6.15H240.5v-5.5a3.11,3.11,0,0,0-.38-1.68,1.79,1.79,0,0,0-1.51-.59h-2.2a.66.66,0,0,0-.38.08.8.8,0,0,0-.07.36v7.25h-2.12V59.05Z"/><path class="cls-1" d="M247.53,67a3.31,3.31,0,0,1-2.95-1.17,6.22,6.22,0,0,1-.68-3.37c0-1.76.08-3,1.14-3.88a5.78,5.78,0,0,1,3.63-.88,6.36,6.36,0,0,1,3.17.59,3.14,3.14,0,0,1,1.37,3,1.94,1.94,0,0,1-.46,1.39,1.46,1.46,0,0,1-1.06.37h-5.6a6,6,0,0,0,.16,1.31c.3,1,1.13,1.1,2,1.1h4.69V67h-5.37Zm2.95-5.57c.46,0,.46-.29.46-.51a1.55,1.55,0,0,0-.61-1.24,3.15,3.15,0,0,0-1.81-.44,2.9,2.9,0,0,0-2.05.58,2,2,0,0,0-.45,1.61Z"/><path class="cls-1" d="M254.19,65.35h5.45a.68.68,0,0,0,.68-.29,1,1,0,0,0,.15-.59.78.78,0,0,0-.31-.73c-.15-.15-.37-.22-1.74-.59l-1.81-.51a4,4,0,0,1-2.12-1.1,2.61,2.61,0,0,1-.45-1.61,2.25,2.25,0,0,1,2.8-2.42h5.44v1.61h-5.14a1.39,1.39,0,0,0-.76.15.91.91,0,0,0-.3.66.74.74,0,0,0,.3.73,4.3,4.3,0,0,0,1.21.51l2.05.59a6.13,6.13,0,0,1,2.42,1,2.57,2.57,0,0,1,.6,1.68,2,2,0,0,1-2.34,2.34h-6.13V65.35Z"/><path class="cls-1" d="M263.8,65.35h5.44a.67.67,0,0,0,.68-.29,1,1,0,0,0,.15-.59.79.79,0,0,0-.3-.73c-.15-.15-.38-.22-1.74-.59l-1.89-.51a4,4,0,0,1-2.12-1.1,2.61,2.61,0,0,1-.45-1.61,2.25,2.25,0,0,1,2.8-2.42h5.44v1.61h-5.14a1.39,1.39,0,0,0-.76.15.91.91,0,0,0-.3.66.74.74,0,0,0,.3.73,4.3,4.3,0,0,0,1.21.51l2.05.59a6.13,6.13,0,0,1,2.42,1,2.57,2.57,0,0,1,.6,1.68,2,2,0,0,1-2.34,2.34h-6.13V65.35Z"/><path class="cls-1" d="M276.88,67a3.31,3.31,0,0,1-2.95-1.17,6.22,6.22,0,0,1-.68-3.37c0-1.76.08-3,1.14-3.88a5.8,5.8,0,0,1,3.63-.88,6.36,6.36,0,0,1,3.17.59,3.14,3.14,0,0,1,1.37,3,1.94,1.94,0,0,1-.46,1.39A1.46,1.46,0,0,1,281,63h-5.59a6.06,6.06,0,0,0,.15,1.31c.3,1,1.13,1.1,2,1.1h4.69V67h-5.37Zm2.95-5.57c.46,0,.46-.29.46-.51a1.55,1.55,0,0,0-.61-1.24,3.15,3.15,0,0,0-1.81-.44,2.9,2.9,0,0,0-2.05.58,2,2,0,0,0-.45,1.61Z"/><path class="cls-1" d="M283.62,65.35h5.44a.67.67,0,0,0,.68-.29,1,1,0,0,0,.15-.59.79.79,0,0,0-.3-.73c-.15-.15-.38-.22-1.74-.59L286,62.64a4,4,0,0,1-2.12-1.1,2.62,2.62,0,0,1-.46-1.61,2.26,2.26,0,0,1,2.8-2.42h5.45v1.61h-5.14a1.39,1.39,0,0,0-.76.15.87.87,0,0,0-.3.66.74.74,0,0,0,.3.73,4.18,4.18,0,0,0,1.21.51l2,.59a6.07,6.07,0,0,1,2.42,1,2.53,2.53,0,0,1,.61,1.68,2.05,2.05,0,0,1-2.35,2.34h-6.12V65.35Z"/></g><g id="of-European"><path class="cls-1" d="M206,40.47c1.13,1,1.21,2.78,1.21,3.73A5.1,5.1,0,0,1,206,48a5.93,5.93,0,0,1-3.85,1,5.83,5.83,0,0,1-3.86-1c-1.13-1-1.2-2.79-1.2-3.74a5.46,5.46,0,0,1,1.2-3.8c1.06-1,2.72-1,3.86-1A5.44,5.44,0,0,1,206,40.47Zm-6.2,6.22a3.07,3.07,0,0,0,2.35.8,2.65,2.65,0,0,0,2.26-.8,3.42,3.42,0,0,0,.61-2.42,3.52,3.52,0,0,0-.61-2.49,3,3,0,0,0-2.34-.73,3.18,3.18,0,0,0-2.34.73,3.8,3.8,0,0,0-.61,2.49A3.73,3.73,0,0,0,199.79,46.69Z"/><path class="cls-1" d="M209.16,48.89V41.2H207.8V39.66h1.36a3,3,0,0,1,1-2.34c.91-.73,2.64-.81,3.78-.81v1.54a3.9,3.9,0,0,0-2.12.29c-.3.15-.53.59-.53,1.32h2.65v1.61h-2.65V49h-2.11Z"/><path class="cls-1" d="M221.32,48.89a1.94,1.94,0,0,1-1.44-.37,1.81,1.81,0,0,1-.45-1.46V38.34a2,2,0,0,1,.45-1.32,2.07,2.07,0,0,1,1.51-.43h8.09v1.83H222.6a1.21,1.21,0,0,0-.68.14.68.68,0,0,0-.22.59v2.49h7.55v1.83H221.7v2.85a.58.58,0,0,0,.15.44c.15.15.45.15.83.15h6.8v1.83h-8.16Z"/><path class="cls-1" d="M239.22,48.52a2.2,2.2,0,0,1-1.51.37h-3.4a3.35,3.35,0,0,1-2.49-.74,3.15,3.15,0,0,1-1-2.71V39.59H233v5.49a2.23,2.23,0,0,0,.38,1.61,2,2,0,0,0,1.73.58h1.74a.66.66,0,0,0,.76-.8v-7h2.11V47.2A1.59,1.59,0,0,1,239.22,48.52Z"/><path class="cls-1" d="M241.18,43.1a3.23,3.23,0,0,1,1-2.71,4.57,4.57,0,0,1,2.87-.8h1.44V41.2h-.91a2.32,2.32,0,0,0-1.81.66,2.77,2.77,0,0,0-.45,1.83V49h-2.12Z"/><path class="cls-1" d="M255.61,40.47c1.13,1,1.21,2.78,1.21,3.73A5.1,5.1,0,0,1,255.61,48a5.93,5.93,0,0,1-3.85,1,5.83,5.83,0,0,1-3.86-1c-1.13-1-1.2-2.79-1.2-3.74a5.46,5.46,0,0,1,1.2-3.8c1.06-1,2.72-1,3.86-1A5.35,5.35,0,0,1,255.61,40.47Zm-6.2,6.22a3.08,3.08,0,0,0,2.35.8,2.65,2.65,0,0,0,2.26-.8,3.42,3.42,0,0,0,.61-2.42,3.52,3.52,0,0,0-.61-2.49,3,3,0,0,0-2.34-.73,3.18,3.18,0,0,0-2.34.73,3.85,3.85,0,0,0-.6,2.49A4.18,4.18,0,0,0,249.41,46.69Z"/><path class="cls-1" d="M260.14,51.89H258V41.05a1.61,1.61,0,0,1,.53-1.17,1.88,1.88,0,0,1,1.21-.29h3.33a3.81,3.81,0,0,1,2.79,1,4.61,4.61,0,0,1,1,3.44,6.06,6.06,0,0,1-.75,3.52,4,4,0,0,1-3.4,1.32H260v3Zm2.42-4.54a2,2,0,0,0,1.81-.88,3.92,3.92,0,0,0,.38-2.27,5.81,5.81,0,0,0-.23-2,2,2,0,0,0-1.89-1h-2.11a.53.53,0,0,0-.46.44v5.71Z"/><path class="cls-1" d="M271.54,48.89a3.3,3.3,0,0,1-2.94-1.18,6.07,6.07,0,0,1-.68-3.36c0-1.76.07-3,1.13-3.88a5.8,5.8,0,0,1,3.63-.88,6.49,6.49,0,0,1,3.17.58,3.15,3.15,0,0,1,1.36,3,2,2,0,0,1-.45,1.4,1.46,1.46,0,0,1-1.06.36h-5.59a6.08,6.08,0,0,0,.15,1.32c.3,1,1.13,1.1,2,1.1h4.69V49h-5.37Zm3-5.57c.46,0,.46-.29.46-.51a1.53,1.53,0,0,0-.61-1.25,3.19,3.19,0,0,0-1.81-.44,2.84,2.84,0,0,0-2,.59,2,2,0,0,0-.45,1.61Z"/><path class="cls-1" d="M284.31,39.59a2.65,2.65,0,0,1,2,.73,3.32,3.32,0,0,1,.68,2.2v4.83a1.39,1.39,0,0,1-.38,1.17,1.81,1.81,0,0,1-1.36.37h-4.6a2.59,2.59,0,0,1-1.74-.44,3.39,3.39,0,0,1-.83-2.57,2.62,2.62,0,0,1,.83-2.27,2.49,2.49,0,0,1,1.74-.51h4.15v-.66a1.07,1.07,0,0,0-.3-.88,1.28,1.28,0,0,0-1.06-.44h-4.76V39.51h5.67Zm-2.95,5.12a.89.89,0,0,0-.75.3,1.53,1.53,0,0,0-.23,1c0,.29,0,.81.3,1a1.2,1.2,0,0,0,.68.29h2.95a.9.9,0,0,0,.45-.08.38.38,0,0,0,.15-.36V44.79h-3.55Z"/><path class="cls-1" d="M288.46,41a1.39,1.39,0,0,1,.3-1,1.87,1.87,0,0,1,1.44-.44h3.4a4,4,0,0,1,2.72.74,2.92,2.92,0,0,1,.9,2.41v6.15h-2.11V43.32a3.11,3.11,0,0,0-.38-1.68,1.78,1.78,0,0,0-1.51-.59H291a.74.74,0,0,0-.38.07.86.86,0,0,0-.07.37v7.25h-2.12V41Z"/></g><g id="Association"><path class="cls-1" d="M201.22,19.83a2,2,0,0,1,2.11-1.39,2,2,0,0,1,2.12,1.39l4.76,11.06h-2.49l-1.29-3.15h-6.12L199,30.89h-2.49Zm-.31,6.3h4.92l-2-5c-.08-.15-.23-.51-.38-.51s-.3.36-.38.51Z"/><path class="cls-1" d="M210.29,29.27h5.44a.67.67,0,0,0,.68-.29,1,1,0,0,0,.15-.58.81.81,0,0,0-.3-.74c-.15-.14-.38-.22-1.74-.58l-1.89-.51a4.12,4.12,0,0,1-2.12-1.1,2.68,2.68,0,0,1-.45-1.61,2.81,2.81,0,0,1,.45-1.61,2.73,2.73,0,0,1,2.35-.81h5.44v1.68h-5.14a1.39,1.39,0,0,0-.76.15.91.91,0,0,0-.3.66.74.74,0,0,0,.3.73,2.75,2.75,0,0,0,1.21.44l2,.59a6,6,0,0,1,2.41,1,2.54,2.54,0,0,1,.61,1.69,2.06,2.06,0,0,1-2.34,2.34h-6.13V29.27Z"/><path class="cls-1" d="M219.81,29.27h5.45a.67.67,0,0,0,.68-.29,1,1,0,0,0,.15-.58.81.81,0,0,0-.3-.74c-.16-.14-.38-.22-1.74-.58l-1.89-.51a4.08,4.08,0,0,1-2.12-1.1,2.61,2.61,0,0,1-.45-1.61,2.73,2.73,0,0,1,.45-1.61,2.71,2.71,0,0,1,2.34-.81h5.45v1.68h-5.14a1.39,1.39,0,0,0-.76.15.87.87,0,0,0-.3.66.74.74,0,0,0,.3.73,2.71,2.71,0,0,0,1.21.44l2,.59a6.14,6.14,0,0,1,2.42,1,2.58,2.58,0,0,1,.6,1.69,2.34,2.34,0,0,1-.83,2,2.31,2.31,0,0,1-1.51.37h-6.12V29.27Z"/><path class="cls-1" d="M238.33,22.47c1.14,1,1.21,2.78,1.21,3.73A5.1,5.1,0,0,1,238.33,30c-1.05.95-2.79,1-3.85,1a5.83,5.83,0,0,1-3.86-1,5.07,5.07,0,0,1-1.21-3.74,5.42,5.42,0,0,1,1.21-3.8c1.06-1,2.72-1,3.86-1A5.42,5.42,0,0,1,238.33,22.47Zm-6.19,6.15a3.09,3.09,0,0,0,2.34.8,2.68,2.68,0,0,0,2.27-.8,3.47,3.47,0,0,0,.6-2.42,3.5,3.5,0,0,0-.6-2.49A3,3,0,0,0,234.4,23a3.18,3.18,0,0,0-2.34.73,3.8,3.8,0,0,0-.61,2.49A3.48,3.48,0,0,0,232.14,28.62Z"/><path class="cls-1" d="M244.23,30.89a3.7,3.7,0,0,1-2.87-1.18,4.57,4.57,0,0,1-.91-3.36,5.28,5.28,0,0,1,1.06-3.81,3.94,3.94,0,0,1,3-1h4.16v1.61h-3.41a2.13,2.13,0,0,0-2.34,1.47,7.86,7.86,0,0,0-.15,1.76,5.22,5.22,0,0,0,.3,1.9c.45.88,1.51.95,2.42.95h3.48v1.61h-4.69Z"/><path class="cls-1" d="M250.05,20.2V18.59h2.12V20.2Zm0,1.39h2.12v9.3h-2.12Z"/><path class="cls-1" d="M259.58,21.59a2.65,2.65,0,0,1,2,.73,3.32,3.32,0,0,1,.68,2.2v4.83a1.39,1.39,0,0,1-.38,1.17,1.81,1.81,0,0,1-1.36.37h-4.61a2.59,2.59,0,0,1-1.74-.44,3.43,3.43,0,0,1-.83-2.57,2.65,2.65,0,0,1,.83-2.27,2.51,2.51,0,0,1,1.74-.51H260v-.66a1.07,1.07,0,0,0-.3-.88,1.28,1.28,0,0,0-1.06-.44h-4.76V21.51h5.67Zm-3,5.05a.91.91,0,0,0-.75.29,1.59,1.59,0,0,0-.23,1c0,.29,0,.8.3,1a1.13,1.13,0,0,0,.68.29h2.95a1,1,0,0,0,.45-.07.38.38,0,0,0,.16-.36V26.71h-3.56Z"/><path class="cls-1" d="M267.82,30.89a4,4,0,0,1-2.57-.66,2.77,2.77,0,0,1-1-2.35V23.12H262.9V21.51h1.36v-3h2.12v3h2.72v1.61h-2.72v3.74c0,.66-.08,1.54.53,2a3,3,0,0,0,1.66.43h.53v1.62Z"/><path class="cls-1" d="M270.24,20.2V18.59h2.11V20.2Zm0,1.39h2.11v9.3h-2.11Z"/><path class="cls-1" d="M282.63,22.47c1.14,1,1.21,2.78,1.21,3.73A5.1,5.1,0,0,1,282.63,30c-1.05.95-2.79,1-3.85,1a5.83,5.83,0,0,1-3.86-1,5.07,5.07,0,0,1-1.21-3.74,5.42,5.42,0,0,1,1.21-3.8c1.06-1,2.72-1,3.86-1A5.42,5.42,0,0,1,282.63,22.47Zm-6.2,6.15a3.12,3.12,0,0,0,2.35.8,2.68,2.68,0,0,0,2.27-.8,3.47,3.47,0,0,0,.6-2.42,3.5,3.5,0,0,0-.6-2.49A3,3,0,0,0,278.7,23a3.18,3.18,0,0,0-2.34.73,3.8,3.8,0,0,0-.61,2.49A3.52,3.52,0,0,0,276.43,28.62Z"/><path class="cls-1" d="M285.05,23a1.36,1.36,0,0,1,.31-1,1.84,1.84,0,0,1,1.43-.44h3.4a4,4,0,0,1,2.72.74,2.94,2.94,0,0,1,1,2.41v6.15h-2.12V25.32a3,3,0,0,0-.38-1.68,1.78,1.78,0,0,0-1.51-.59H287.7a.74.74,0,0,0-.38.07.86.86,0,0,0-.07.37v7.25h-2.12V23Z"/></g></g></g></g></g><g id="Layer_2" data-name="Layer 2"><path class="cls-1" d="M85.42,84.85H.77V.2H85.42Zm-83.59-1H84.37V1.25H1.83Z"/><path class="cls-1" d="M17.46,52.26c-.62,0-3.52-.09-3.52-3.87,0-2.53,1-3.59,2-4.24L31.39,33.92c2-1.29,2.09-2.81,2.09-4.65,0-1.61-.14-2.67-.67-3.32a4.34,4.34,0,0,0-3.37-1.1H16.17V20H32.34A7.77,7.77,0,0,1,38,21.9c1.81,1.75,2,4.28,2,6.68,0,1.75-.05,4.33-1.53,6.41a11,11,0,0,1-2.89,2.58l-13.41,9c-.15.09-.52.32-.52.55s0,.27.37.27H38.52v4.84Z"/><path class="cls-1" d="M44,47.42H58.79A3.82,3.82,0,0,0,62.17,46a7.94,7.94,0,0,0,.71-3.54,6,6,0,0,0-.71-3.23,3.34,3.34,0,0,0-2.9-1.2H50.43c-1.29,0-3.43,0-4.76-.92-1.85-1.29-1.9-3.73-1.9-4.84V24.16a4.24,4.24,0,0,1,1-3A4.72,4.72,0,0,1,48.19,20H68.25v4.84H51.62a1.68,1.68,0,0,0-1.29.41A1.92,1.92,0,0,0,50,26.51v4a3,3,0,0,0,.53,2.11,3.46,3.46,0,0,0,2.23.6H62a6.68,6.68,0,0,1,5.65,2.45c1.67,2,1.72,4.37,1.72,6.58,0,2.9-.19,6.18-2.28,8.16s-4.57,1.84-6.33,1.84H44Z"/><path class="cls-1" d="M75.08,6.56v5.17h5v1.78h-5v5.21h-1.9V13.51h-5V11.73h5V6.56Z"/><path class="cls-1" d="M20.56,73.36H18.13l1.65-3.55L15,59h2.48l3.48,8.34L24.6,59H27Z"/><path class="cls-1" d="M31.18,69.85a3.65,3.65,0,0,1-3.32-1.37,7,7,0,0,1-.78-4c0-2,.1-3.52,1.29-4.54s3-1,4.06-1a6.65,6.65,0,0,1,3.58.7,3.8,3.8,0,0,1,1.54,3.52A2.21,2.21,0,0,1,37,64.81a1.55,1.55,0,0,1-1.17.41H29.56a8.15,8.15,0,0,0,.14,1.5C30,67.89,31,68,31.89,68H37.2v1.84Zm3.35-6.47c.48,0,.54-.35.54-.64a1.84,1.84,0,0,0-.7-1.45,3.32,3.32,0,0,0-2-.49,2.81,2.81,0,0,0-2.27.71,2.61,2.61,0,0,0-.49,1.87Z"/><path class="cls-1" d="M45.58,59a3.16,3.16,0,0,1,2.25.84,3.7,3.7,0,0,1,.81,2.57V68a2,2,0,0,1-.44,1.39,2,2,0,0,1-1.49.43H41.53a2.81,2.81,0,0,1-2-.53,3.91,3.91,0,0,1-.94-2.95,3.2,3.2,0,0,1,.92-2.64,2.76,2.76,0,0,1,2-.64h4.71v-.76a1.57,1.57,0,0,0-.31-1,1.41,1.41,0,0,0-1.17-.47H39.41V59Zm-3.34,5.95a1.09,1.09,0,0,0-.88.36,1.83,1.83,0,0,0-.27,1.17,2,2,0,0,0,.33,1.21,1.22,1.22,0,0,0,.78.33h3.34a.89.89,0,0,0,.53-.12.51.51,0,0,0,.17-.46V64.94Z"/><path class="cls-1" d="M50.27,63.09a3.92,3.92,0,0,1,1.13-3.15A4.86,4.86,0,0,1,54.66,59h1.62v1.85h-1a2.57,2.57,0,0,0-2.05.75,3.34,3.34,0,0,0-.55,2.14v6.12h-2.4Z"/><path class="cls-1" d="M57,68h6.11a1,1,0,0,0,.8-.31,1,1,0,0,0,.2-.68,1,1,0,0,0-.3-.81c-.17-.15-.46-.29-2-.7l-2.09-.57a4.14,4.14,0,0,1-2.38-1.32,3.57,3.57,0,0,1,0-3.68,2.91,2.91,0,0,1,2.6-.95h6.13v1.85H60.29a1.33,1.33,0,0,0-.84.2.87.87,0,0,0-.3.78.92.92,0,0,0,.34.84,4.8,4.8,0,0,0,1.36.55l2.33.66a5.81,5.81,0,0,1,2.71,1.23,2.87,2.87,0,0,1,.65,2,2.78,2.78,0,0,1-.9,2.31,2.85,2.85,0,0,1-1.74.45H57Z"/></g></svg>
