<?xml version="1.0" encoding="UTF-8"?>
<svg width="280px" height="90px" viewBox="0 0 280 90" version="1.1" xmlns="http://www.w3.org/2000/svg" xmlns:xlink="http://www.w3.org/1999/xlink">
    <!-- Generator: Sketch 57.1 (83088) - https://sketch.com -->
    <title>aeb_logo</title>
    <desc>Created with Sketch.</desc>
    <defs>
        <filter x="-16.1%" y="-32.9%" width="132.2%" height="165.7%" filterUnits="objectBoundingBox" id="filter-1">
            <feOffset dx="0" dy="2" in="SourceAlpha" result="shadowOffsetOuter1"></feOffset>
            <feGaussianBlur stdDeviation="5" in="shadowOffsetOuter1" result="shadowBlurOuter1"></feGaussianBlur>
            <feColorMatrix values="0 0 0 0 0   0 0 0 0 0   0 0 0 0 0  0 0 0 0.03 0" type="matrix" in="shadowBlurOuter1" result="shadowMatrixOuter1"></feColorMatrix>
            <feMerge>
                <feMergeNode in="shadowMatrixOuter1"></feMergeNode>
                <feMergeNode in="SourceGraphic"></feMergeNode>
            </feMerge>
        </filter>
    </defs>
    <g id="AEB-APP" stroke="none" stroke-width="1" fill="none" fill-rule="evenodd">
        <g id="00.-Loading-Screen" transform="translate(-56.000000, -355.000000)">
            <g id="aeb_logo" transform="translate(42.000000, 339.000000)">
                <path d="M25.088,49.866 C26.136,47.945 27.099,47.289 29.154,47.289 C31.106,47.289 32.008,47.945 32.586,49.866 L38.675,70.373 L34.14,70.373 L32.505,64.602 L21.519,64.602 L18.496,70.373 L13.961,70.373 L25.088,49.866 Z M23.006,61.537 L31.774,61.537 L29.197,52.248 C29.106,51.92 28.955,51.302 28.662,51.302 C28.372,51.302 28.065,51.92 27.895,52.248 L23.006,61.537 L23.006,61.537 Z" id="Fill-2" fill="#FFFFFE"></path>
                <path d="M43.529,70.373 C42.548,70.373 41.671,70.373 41.009,69.658 C40.318,68.905 40.38,67.861 40.49,66.984 L42.478,50.812 C42.588,49.9 42.994,48.983 43.548,48.432 C44.4,47.617 45.517,47.553 46.399,47.553 L61.035,47.553 L60.615,50.974 L48.29,50.974 C47.902,50.974 47.437,51.006 47.079,51.302 C46.679,51.627 46.625,52.082 46.582,52.41 L46.017,57.003 L59.55,57.003 L59.131,60.43 L45.598,60.43 L44.941,65.779 C44.898,66.135 44.984,66.495 45.162,66.657 C45.388,66.915 45.904,66.952 46.592,66.952 L58.787,66.952 L58.367,70.373 L43.529,70.373" id="Fill-3" fill="#FFFFFE"></path>
                <path d="M78.038,47.553 C79.275,47.553 80.953,47.682 82.008,48.919 C83.121,50.223 83.024,52.313 82.846,53.814 C82.685,55.051 82.47,56.323 81.308,57.525 C80.56,58.31 79.867,58.639 79.011,58.703 L78.995,58.832 C80.06,58.929 80.878,59.418 81.362,60.036 C82.292,61.212 82.088,62.842 81.937,64.112 C81.749,65.613 81.523,67.442 80.039,68.905 C78.554,70.373 77.085,70.373 75.687,70.373 L64.768,70.373 C63.628,70.373 62.568,70.503 61.777,69.459 C61.583,69.201 61.121,68.447 61.283,67.147 L63.283,50.844 C63.391,49.997 63.73,49.086 64.289,48.497 C65.075,47.682 66.102,47.553 66.817,47.553 L78.038,47.553 Z M66.812,57.138 L75.165,57.138 C76.01,57.138 76.924,57.138 77.613,56.323 C77.796,56.126 78.188,55.573 78.382,54.007 C78.457,53.386 78.57,52.248 77.935,51.562 C77.387,50.974 76.602,50.974 75.886,50.974 L68.845,50.974 C68.485,50.974 68.13,50.941 67.834,51.237 C67.538,51.53 67.447,51.985 67.415,52.248 L66.812,57.138 Z M65.817,65.253 C65.726,66.006 65.779,66.398 65.914,66.593 C66.226,66.984 66.946,66.952 67.274,66.952 L74.057,66.952 C74.741,66.952 75.918,66.915 76.666,66.135 C77.226,65.549 77.446,64.537 77.538,63.821 C77.619,63.167 77.683,62.124 77.333,61.505 C77.118,61.147 76.537,60.56 75.133,60.56 L66.393,60.56 L65.817,65.253 L65.817,65.253 Z" id="Fill-4" fill="#FFFFFE"></path>
                <g id="Stars" transform="translate(39.670000, 20.373000)" fill="#FFF101">
                    <polyline id="Fill-7" points="25.523 9.983 29.024 7.633 31.951 9.983 31.192 6.186 34.742 3.84 30.724 3.84 29.96 -2.13162821e-14 28.255 3.846 24.237 3.84 27.206 6.186 25.523 9.983"></polyline>
                    <polyline id="Fill-8" points="8.343 14.448 11.845 12.102 14.765 14.448 14.012 10.656 17.562 8.31 13.538 8.31 12.78 4.467 11.075 8.316 7.054 8.31 10.026 10.656 8.343 14.448"></polyline>
                    <polyline id="Fill-9" points="6.487 65.971 5.726 62.13 4.023 65.977 3.55271368e-15 65.971 2.975 68.316 1.288 72.108 4.79 69.763 7.713 72.108 6.957 68.316 10.508 65.971 6.487 65.971"></polyline>
                    <polyline id="Fill-10" points="22.554 70.387 21.795 66.546 20.09 70.393 16.067 70.387 19.041 72.731 17.358 76.524 20.859 74.179 23.78 76.524 23.027 72.731 26.577 70.387 22.554 70.387"></polyline>
                    <polyline id="Fill-11" points="39.707 65.971 38.949 62.13 37.238 65.977 33.225 65.971 36.195 68.316 34.511 72.108 38.013 69.763 40.933 72.108 40.175 68.316 43.73 65.971 39.707 65.971"></polyline>
                    <polyline id="Fill-12" points="53.396 53.777 52.633 49.937 50.933 53.782 46.91 53.777 49.889 56.122 48.195 59.914 51.697 57.568 54.623 59.914 53.87 56.122 57.42 53.777 53.396 53.777"></polyline>
                    <polyline id="Fill-13" points="63.885 37.071 59.862 37.071 59.103 33.231 57.398 37.077 53.375 37.071 56.355 39.417 54.666 43.209 58.167 40.857 61.088 43.209 60.335 39.417 63.885 37.071"></polyline>
                    <polyline id="Fill-14" points="52.288 26.593 55.79 24.25 58.716 26.593 57.958 22.801 61.508 20.461 57.49 20.461 56.726 16.618 55.021 20.467 51.003 20.461 53.977 22.801 52.288 26.593"></polyline>
                    <polyline id="Fill-15" points="46.076 4.475 44.37 8.321 40.352 8.31 43.322 10.661 41.633 14.453 45.14 12.102 48.066 14.453 47.308 10.661 50.857 8.31 46.828 8.31 46.076 4.475"></polyline>
                </g>
                <g id="Association-of-European-Business" filter="url(#filter-1)" transform="translate(140.700000, 23.909000)" fill="#F8F9FB">
                    <path d="M6.756,2.022 C7.396,0.511 8.087,-4.26325641e-14 9.699,-4.26325641e-14 C11.236,-4.26325641e-14 12.003,0.511 12.641,2.022 L19.399,18.119 L15.841,18.119 L13.998,13.589 L5.374,13.589 L3.557,18.119 L-1.42108547e-14,18.119 L6.756,2.022 Z M6.244,11.185 L13.13,11.185 L10.212,3.891 C10.109,3.634 9.93,3.149 9.699,3.149 C9.47,3.149 9.289,3.634 9.188,3.891 L6.244,11.185 L6.244,11.185 Z" id="Fill-16"></path>
                    <path d="M19.488,15.816 L27.115,15.816 C27.421,15.816 27.83,15.765 28.115,15.433 C28.368,15.15 28.368,14.793 28.368,14.588 C28.368,14.229 28.321,13.871 27.986,13.564 C27.782,13.384 27.421,13.206 25.528,12.694 L22.92,11.977 C21.484,11.593 20.488,11.081 19.95,10.339 C19.412,9.598 19.311,8.701 19.311,8.037 C19.311,7.371 19.412,6.475 19.95,5.733 C20.744,4.633 22.048,4.555 23.199,4.555 L30.854,4.555 L30.854,6.859 L23.662,6.859 C23.328,6.859 22.944,6.859 22.614,7.116 C22.252,7.397 22.226,7.729 22.226,8.088 C22.226,8.471 22.252,8.804 22.661,9.136 C23.046,9.444 23.995,9.726 24.351,9.828 L27.272,10.647 C28.879,11.107 29.983,11.465 30.65,12.182 C31.337,12.924 31.467,13.923 31.467,14.665 C31.467,16.303 30.854,17.147 30.34,17.556 C29.649,18.068 28.804,18.119 28.164,18.119 L19.488,18.119 L19.488,15.816" id="Fill-17"></path>
                    <path d="M32.986,15.816 L40.61,15.816 C40.921,15.816 41.328,15.765 41.61,15.433 C41.867,15.15 41.867,14.793 41.867,14.588 C41.867,14.229 41.816,13.871 41.483,13.564 C41.277,13.384 40.921,13.206 39.025,12.694 L36.415,11.977 C34.982,11.593 33.984,11.081 33.446,10.339 C32.908,9.598 32.806,8.701 32.806,8.037 C32.806,7.371 32.908,6.475 33.446,5.733 C34.242,4.633 35.544,4.555 36.697,4.555 L44.35,4.555 L44.35,6.859 L37.157,6.859 C36.824,6.859 36.442,6.859 36.109,7.116 C35.748,7.397 35.724,7.729 35.724,8.088 C35.724,8.471 35.748,8.804 36.159,9.136 C36.545,9.444 37.491,9.726 37.849,9.828 L40.767,10.647 C42.381,11.107 43.478,11.465 44.145,12.182 C44.834,12.924 44.962,13.923 44.962,14.665 C44.962,16.303 44.35,17.147 43.839,17.556 C43.145,18.068 42.3,18.119 41.663,18.119 L32.986,18.119 L32.986,15.816" id="Fill-18"></path>
                    <path d="M58.996,5.835 C60.559,7.294 60.739,9.853 60.739,11.287 C60.739,14.152 59.997,15.867 58.996,16.814 C57.538,18.171 55.083,18.273 53.52,18.273 C51.909,18.273 49.529,18.171 48.045,16.814 C46.431,15.33 46.305,12.77 46.305,11.389 C46.305,9.853 46.485,7.294 48.045,5.835 C49.529,4.453 51.909,4.401 53.52,4.401 C55.134,4.401 57.512,4.453 58.996,5.835 Z M50.272,14.844 C51.144,15.841 52.444,15.969 53.52,15.969 C54.648,15.969 55.85,15.841 56.748,14.844 C57.641,13.846 57.641,12.54 57.641,11.363 C57.641,10.365 57.718,8.83 56.773,7.78 C55.903,6.807 54.597,6.705 53.52,6.705 C52.546,6.705 51.089,6.807 50.244,7.78 C49.4,8.754 49.4,10.493 49.4,11.363 C49.4,12.489 49.428,13.871 50.272,14.844 L50.272,14.844 Z" id="Fill-19"></path>
                    <path d="M67.355,18.119 C66.33,18.119 64.538,17.915 63.31,16.456 C62.186,15.125 62.083,13.436 62.083,11.517 C62.083,9.904 62.108,7.575 63.617,6.014 C64.182,5.452 65.333,4.555 67.764,4.555 L73.572,4.555 L73.572,6.859 L68.737,6.859 C66.715,6.859 65.741,7.857 65.407,9.009 C65.203,9.726 65.179,11.159 65.179,11.568 C65.179,12.362 65.257,13.667 65.612,14.382 C66.279,15.688 67.764,15.816 69.017,15.816 L73.88,15.816 L73.88,18.119 L67.355,18.119" id="Fill-20"></path>
                    <path d="M75.579,2.585 L78.572,2.585 L78.572,0.205 L75.579,0.205 L75.579,2.585 Z M75.579,18.119 L78.572,18.119 L78.572,4.555 L75.579,4.555 L75.579,18.119 Z" id="Fill-21"></path>
                    <path d="M88.968,4.555 C90.118,4.555 91.168,4.966 91.78,5.605 C92.345,6.193 92.781,7.294 92.781,8.804 L92.781,15.841 C92.781,16.328 92.728,17.096 92.243,17.581 C91.756,18.068 91.014,18.119 90.374,18.119 L83.901,18.119 C83.158,18.119 82.212,18.119 81.443,17.454 C80.342,16.507 80.265,14.767 80.265,13.769 C80.265,12.566 80.393,11.363 81.416,10.468 C82.26,9.726 83.183,9.674 83.901,9.674 L89.785,9.674 L89.785,8.728 C89.785,8.318 89.735,7.857 89.402,7.447 C88.992,6.935 88.403,6.859 87.943,6.859 L81.265,6.859 L81.265,4.555 L88.968,4.555 Z M84.793,11.977 C84.589,11.977 84.027,12.004 83.696,12.438 C83.594,12.566 83.364,12.924 83.364,13.897 C83.364,14.306 83.414,15.022 83.772,15.407 C83.976,15.611 84.36,15.816 84.745,15.816 L88.913,15.816 C89.097,15.816 89.376,15.816 89.58,15.663 C89.785,15.484 89.785,15.305 89.785,15.099 L89.785,11.977 L84.793,11.977 L84.793,11.977 Z" id="Fill-22"></path>
                    <path d="M100.672,18.119 C98.857,18.119 97.886,17.813 97.041,17.122 C96.17,16.405 95.683,15.407 95.683,13.693 L95.683,6.859 L93.814,6.859 L93.814,4.555 L95.683,4.555 L95.683,0.205 L98.676,0.205 L98.676,4.555 L102.466,4.555 L102.466,6.859 L98.676,6.859 L98.676,12.31 C98.676,13.232 98.601,14.511 99.473,15.227 C100.137,15.791 101.264,15.816 101.802,15.816 L102.544,15.816 L102.544,18.119 L100.672,18.119" id="Fill-23"></path>
                    <path d="M104.083,2.585 L107.078,2.585 L107.078,0.205 L104.083,0.205 L104.083,2.585 Z M104.083,18.119 L107.078,18.119 L107.078,4.555 L104.083,4.555 L104.083,18.119 Z" id="Fill-24"></path>
                    <path d="M121.464,5.835 C123.027,7.294 123.204,9.853 123.204,11.287 C123.204,14.152 122.462,15.867 121.464,16.814 C120.007,18.171 117.551,18.273 115.988,18.273 C114.378,18.273 111.994,18.171 110.51,16.814 C108.899,15.33 108.773,12.77 108.773,11.389 C108.773,9.853 108.95,7.294 110.51,5.835 C111.994,4.453 114.378,4.401 115.988,4.401 C117.6,4.401 119.983,4.453 121.464,5.835 Z M112.737,14.844 C113.609,15.841 114.913,15.969 115.988,15.969 C117.115,15.969 118.315,15.841 119.214,14.844 C120.109,13.846 120.109,12.54 120.109,11.363 C120.109,10.365 120.187,8.83 119.24,7.78 C118.368,6.807 117.062,6.705 115.988,6.705 C115.015,6.705 113.557,6.807 112.713,7.78 C111.868,8.754 111.868,10.493 111.868,11.363 C111.868,12.489 111.893,13.871 112.737,14.844 L112.737,14.844 Z" id="Fill-25"></path>
                    <path d="M124.904,6.629 C124.904,6.218 124.931,5.605 125.34,5.17 C125.904,4.529 126.824,4.555 127.413,4.555 L132.198,4.555 C133.608,4.555 134.911,4.684 135.988,5.656 C136.705,6.297 137.319,7.32 137.319,9.188 L137.319,18.119 L134.323,18.119 L134.323,10.083 C134.323,9.188 134.247,8.318 133.76,7.677 C133.327,7.116 132.712,6.859 131.612,6.859 L128.568,6.859 C128.384,6.859 128.206,6.859 128.054,7.012 C127.9,7.192 127.9,7.397 127.9,7.575 L127.9,18.119 L124.904,18.119 L124.904,6.629" id="Fill-26"></path>
                    <path d="M14.125,31.447 C15.688,32.906 15.868,35.465 15.868,36.899 C15.868,39.764 15.126,41.479 14.125,42.425 C12.667,43.781 10.212,43.883 8.651,43.883 C7.038,43.883 4.658,43.781 3.174,42.425 C1.561,40.94 1.433,38.381 1.433,37 C1.433,35.465 1.612,32.906 3.174,31.447 C4.658,30.065 7.038,30.013 8.651,30.013 C10.263,30.013 12.641,30.065 14.125,31.447 Z M5.401,40.456 C6.271,41.452 7.574,41.58 8.651,41.58 C9.777,41.58 10.979,41.452 11.877,40.456 C12.77,39.457 12.77,38.151 12.77,36.975 C12.77,35.977 12.848,34.442 11.902,33.392 C11.032,32.419 9.726,32.317 8.651,32.317 C7.677,32.317 6.22,32.419 5.374,33.392 C4.53,34.365 4.53,36.105 4.53,36.975 C4.53,38.101 4.557,39.483 5.401,40.456 L5.401,40.456 Z" id="Fill-27"></path>
                    <path d="M18.643,43.733 L18.643,32.47 L16.75,32.47 L16.75,30.193 L18.643,30.193 C18.67,29.297 18.899,27.71 20.05,26.763 C21.33,25.714 23.812,25.587 25.349,25.638 L25.349,27.839 C23.812,27.839 22.942,27.89 22.403,28.248 C22.022,28.504 21.612,29.067 21.637,30.167 L25.349,30.167 L25.349,32.47 L21.637,32.47 L21.637,43.733 L18.643,43.733" id="Fill-28"></path>
                    <path d="M35.776,43.733 C35.006,43.733 34.318,43.733 33.729,43.168 C33.114,42.581 33.064,41.761 33.064,41.069 L33.064,28.376 C33.064,27.659 33.292,26.944 33.678,26.508 C34.264,25.868 35.135,25.817 35.826,25.817 L47.319,25.817 L47.319,28.504 L37.642,28.504 C37.335,28.504 36.98,28.529 36.722,28.76 C36.442,29.016 36.442,29.373 36.442,29.63 L36.442,33.238 L47.061,33.238 L47.061,35.925 L36.442,35.925 L36.442,40.122 C36.442,40.402 36.545,40.685 36.694,40.812 C36.902,41.019 37.311,41.043 37.849,41.043 L47.42,41.043 L47.42,43.733 L35.776,43.733" id="Fill-29"></path>
                    <path d="M61.048,43.219 C60.459,43.705 59.641,43.733 58.923,43.733 L54.139,43.733 C52.576,43.733 51.527,43.501 50.605,42.708 C49.481,41.736 49.223,40.378 49.223,38.715 L49.223,30.167 L52.219,30.167 L52.219,38.177 C52.219,39.38 52.347,40.048 52.73,40.559 C53.268,41.301 54.085,41.427 55.161,41.427 L57.646,41.427 C58.055,41.427 58.334,41.325 58.515,41.145 C58.771,40.892 58.771,40.583 58.771,40.327 L58.771,30.167 L61.766,30.167 L61.766,41.301 C61.766,41.785 61.74,42.656 61.048,43.219" id="Fill-30"></path>
                    <path d="M63.82,35.286 C63.82,33.801 64.079,32.342 65.23,31.345 C66.484,30.245 68.251,30.167 69.3,30.167 L71.32,30.167 L71.32,32.47 L70.066,32.47 C69.276,32.47 68.227,32.572 67.509,33.417 C66.946,34.109 66.818,35.055 66.818,36.079 L66.818,43.733 L63.82,43.733 L63.82,35.286" id="Fill-31"></path>
                    <path d="M84.175,31.447 C85.735,32.906 85.912,35.465 85.912,36.899 C85.912,39.764 85.173,41.479 84.175,42.425 C82.717,43.781 80.259,43.883 78.699,43.883 C77.085,43.883 74.705,43.781 73.221,42.425 C71.61,40.94 71.481,38.381 71.481,37 C71.481,35.465 71.658,32.906 73.221,31.447 C74.705,30.065 77.085,30.013 78.699,30.013 C80.31,30.013 82.691,30.065 84.175,31.447 Z M75.447,40.456 C76.317,41.452 77.623,41.58 78.699,41.58 C79.823,41.58 81.026,41.452 81.921,40.456 C82.819,39.457 82.819,38.151 82.819,36.975 C82.819,35.977 82.895,34.442 81.948,33.392 C81.076,32.419 79.773,32.317 78.699,32.317 C77.726,32.317 76.269,32.419 75.423,33.392 C74.579,34.365 74.579,36.105 74.579,36.975 C74.579,38.101 74.604,39.483 75.447,40.456 L75.447,40.456 Z" id="Fill-32"></path>
                    <path d="M90.61,48.081 L87.617,48.081 L87.617,32.266 C87.617,31.371 88.053,30.858 88.384,30.603 C88.898,30.219 89.562,30.167 90.072,30.167 L94.81,30.167 C95.678,30.167 97.492,30.296 98.8,31.651 C100.183,33.085 100.234,35.184 100.234,36.667 C100.234,38.459 100.131,40.402 99.157,41.785 C97.88,43.63 95.779,43.733 94.401,43.733 L90.61,43.733 L90.61,48.081 Z M94.013,41.427 C95.497,41.427 96.239,40.709 96.573,40.174 C96.856,39.764 97.138,38.944 97.138,36.924 C97.138,35.081 96.934,34.365 96.778,34.006 C96.396,33.136 95.497,32.47 94.169,32.47 L91.227,32.47 C91.097,32.47 90.918,32.572 90.815,32.649 C90.661,32.804 90.61,32.957 90.61,33.11 L90.61,41.427 L94.013,41.427 L94.013,41.427 Z" id="Fill-33"></path>
                    <path d="M106.691,43.733 C105.309,43.733 103.674,43.603 102.546,42.017 C101.652,40.736 101.575,38.867 101.575,37.077 C101.575,34.544 101.702,32.675 103.187,31.396 C104.671,30.116 106.973,30.116 108.254,30.116 C109.84,30.116 111.479,30.193 112.732,30.986 C114.319,31.985 114.652,33.674 114.652,35.388 C114.652,36.079 114.577,36.872 114.012,37.435 C113.604,37.845 113.092,37.946 112.554,37.946 L104.671,37.946 C104.671,38.536 104.749,39.406 104.852,39.815 C105.234,41.275 106.487,41.427 107.589,41.427 L114.216,41.427 L114.216,43.733 L106.691,43.733 Z M110.889,35.644 C111.479,35.644 111.554,35.21 111.554,34.851 C111.554,34.006 111.117,33.366 110.686,33.034 C109.943,32.47 108.972,32.419 108.127,32.419 C107.331,32.419 106.105,32.394 105.285,33.315 C104.671,34.006 104.696,34.748 104.671,35.644 L110.889,35.644 L110.889,35.644 Z" id="Fill-34"></path>
                    <path d="M124.694,30.167 C125.846,30.167 126.895,30.577 127.511,31.217 C128.073,31.805 128.508,32.906 128.508,34.416 L128.508,41.452 C128.508,41.942 128.456,42.708 127.97,43.194 C127.487,43.679 126.743,43.733 126.104,43.733 L119.627,43.733 C118.885,43.733 117.938,43.733 117.169,43.065 C116.073,42.118 115.993,40.378 115.993,39.38 C115.993,38.177 116.12,36.975 117.145,36.079 C117.989,35.338 118.911,35.286 119.627,35.286 L125.512,35.286 L125.512,34.339 C125.512,33.929 125.463,33.468 125.13,33.059 C124.721,32.547 124.132,32.47 123.672,32.47 L116.991,32.47 L116.991,30.167 L124.694,30.167 Z M120.523,37.588 C120.319,37.588 119.757,37.614 119.423,38.05 C119.321,38.177 119.089,38.536 119.089,39.508 C119.089,39.917 119.143,40.634 119.498,41.019 C119.703,41.223 120.09,41.427 120.472,41.427 L124.644,41.427 C124.823,41.427 125.104,41.427 125.308,41.275 C125.512,41.096 125.512,40.916 125.512,40.709 L125.512,37.588 L120.523,37.588 L120.523,37.588 Z" id="Fill-35"></path>
                    <path d="M130.566,32.24 C130.566,31.83 130.589,31.217 131.001,30.781 C131.563,30.141 132.485,30.167 133.074,30.167 L137.86,30.167 C139.266,30.167 140.573,30.296 141.65,31.268 C142.363,31.908 142.978,32.931 142.978,34.799 L142.978,43.733 L139.985,43.733 L139.985,35.695 C139.985,34.799 139.906,33.929 139.421,33.289 C138.986,32.727 138.373,32.47 137.271,32.47 L134.226,32.47 C134.048,32.47 133.865,32.47 133.715,32.624 C133.559,32.804 133.559,33.009 133.559,33.187 L133.559,43.733 L130.566,43.733 L130.566,32.24" id="Fill-36"></path>
                    <path d="M13.566,51.429 C14.536,51.429 15.868,51.531 16.815,52.502 C17.813,53.527 17.939,55.165 17.939,56.341 C17.939,57.315 17.89,58.315 17.094,59.262 C16.583,59.874 16.072,60.13 15.405,60.181 L15.405,60.283 C16.25,60.359 16.944,60.746 17.376,61.23 C18.222,62.15 18.222,63.43 18.222,64.431 C18.222,65.606 18.222,67.038 17.197,68.19 C16.174,69.341 15.023,69.341 13.921,69.341 L5.35,69.341 C4.452,69.341 3.635,69.444 2.918,68.626 C2.737,68.421 2.304,67.832 2.304,66.807 L2.304,54.011 C2.304,53.347 2.483,52.631 2.866,52.171 C3.403,51.531 4.196,51.429 4.76,51.429 L13.566,51.429 Z M5.682,58.951 L12.232,58.951 C12.899,58.951 13.614,58.951 14.077,58.315 C14.203,58.158 14.458,57.723 14.458,56.496 C14.458,56.009 14.435,55.114 13.872,54.575 C13.383,54.113 12.77,54.113 12.207,54.113 L6.68,54.113 C6.399,54.113 6.116,54.089 5.911,54.32 C5.707,54.549 5.682,54.909 5.682,55.114 L5.682,58.951 Z M5.682,65.322 C5.682,65.915 5.758,66.221 5.886,66.372 C6.169,66.681 6.731,66.657 6.987,66.657 L12.31,66.657 C12.848,66.657 13.77,66.63 14.28,66.017 C14.663,65.554 14.74,64.761 14.74,64.199 C14.74,63.689 14.69,62.867 14.357,62.38 C14.153,62.101 13.641,61.638 12.538,61.638 L5.682,61.638 L5.682,65.322 L5.682,65.322 Z" id="Fill-37"></path>
                    <path d="M32.107,68.83 C31.518,69.318 30.697,69.341 29.983,69.341 L25.195,69.341 C23.635,69.341 22.586,69.113 21.666,68.319 C20.539,67.346 20.284,65.99 20.284,64.327 L20.284,55.777 L23.277,55.777 L23.277,63.79 C23.277,64.992 23.403,65.656 23.79,66.168 C24.326,66.91 25.147,67.038 26.222,67.038 L28.702,67.038 C29.11,67.038 29.393,66.937 29.573,66.759 C29.828,66.501 29.828,66.194 29.828,65.939 L29.828,55.777 L32.821,55.777 L32.821,66.91 C32.821,67.4 32.798,68.269 32.107,68.83" id="Fill-38"></path>
                    <path d="M34.702,67.038 L42.326,67.038 C42.637,67.038 43.044,66.987 43.327,66.657 C43.583,66.372 43.583,66.017 43.583,65.813 C43.583,65.452 43.531,65.094 43.198,64.785 C42.993,64.609 42.637,64.431 40.74,63.917 L38.131,63.198 C36.697,62.817 35.699,62.306 35.162,61.564 C34.624,60.821 34.522,59.922 34.522,59.262 C34.522,58.594 34.624,57.698 35.162,56.956 C35.958,55.857 37.26,55.777 38.413,55.777 L46.066,55.777 L46.066,58.083 L38.873,58.083 C38.54,58.083 38.157,58.083 37.824,58.339 C37.464,58.621 37.44,58.951 37.44,59.31 C37.44,59.694 37.464,60.027 37.875,60.359 C38.261,60.664 39.207,60.949 39.565,61.052 L42.483,61.869 C44.097,62.329 45.194,62.688 45.86,63.406 C46.55,64.149 46.678,65.146 46.678,65.888 C46.678,67.526 46.066,68.37 45.555,68.779 C44.86,69.293 44.016,69.341 43.379,69.341 L34.702,69.341 L34.702,67.038" id="Fill-39"></path>
                    <path d="M48.378,53.807 L51.374,53.807 L51.374,51.429 L48.378,51.429 L48.378,53.807 Z M48.378,69.341 L51.374,69.341 L51.374,55.777 L48.378,55.777 L48.378,69.341 Z" id="Fill-40"></path>
                    <path d="M53.424,57.852 C53.424,57.443 53.45,56.83 53.86,56.395 C54.421,55.754 55.344,55.7768969 55.93,55.7768969 L60.718,55.7768969 C62.127,55.7768969 63.429,55.907 64.504,56.878 C65.222,57.518 65.836,58.543 65.836,60.412 L65.836,69.341 L62.842,69.341 L62.842,61.305 C62.842,60.412 62.767,59.541 62.277,58.901 C61.844,58.339 61.229,58.083 60.128,58.083 L57.084,58.083 C56.903,58.083 56.726,58.083 56.57,58.234 C56.419,58.416 56.419,58.621 56.419,58.799 L56.419,69.341 L53.424,69.341 L53.424,57.852" id="Fill-41"></path>
                    <path d="M72.653,69.341 C71.271,69.341 69.635,69.214 68.509,67.628 C67.614,66.348 67.538,64.479 67.538,62.688 C67.538,60.154 67.664,58.288 69.149,57.007 C70.633,55.727 72.936,55.727 74.216,55.727 C75.803,55.727 77.441,55.802 78.694,56.599 C80.28,57.597 80.614,59.285 80.614,60.999 C80.614,61.693 80.538,62.484 79.974,63.048 C79.566,63.457 79.054,63.559 78.517,63.559 L70.633,63.559 C70.633,64.149 70.712,65.017 70.814,65.425 C71.195,66.886 72.449,67.038 73.551,67.038 L80.179,67.038 L80.179,69.341 L72.653,69.341 Z M76.852,61.257 C77.441,61.257 77.516,60.821 77.516,60.46 C77.516,59.616 77.08,58.976 76.647,58.645 C75.904,58.083 74.934,58.03 74.09,58.03 C73.293,58.03 72.067,58.005 71.246,58.927 C70.633,59.616 70.658,60.359 70.633,61.257 L76.852,61.257 L76.852,61.257 Z" id="Fill-42"></path>
                    <path d="M82.137,67.038 L89.761,67.038 C90.07,67.038 90.48,66.987 90.759,66.657 C91.017,66.372 91.017,66.017 91.017,65.813 C91.017,65.452 90.963,65.094 90.629,64.785 C90.426,64.609 90.07,64.431 88.174,63.917 L85.563,63.198 C84.132,62.817 83.132,62.306 82.596,61.564 C82.058,60.821 81.956,59.922 81.956,59.262 C81.956,58.594 82.058,57.698 82.596,56.956 C83.39,55.857 84.694,55.777 85.848,55.777 L93.496,55.777 L93.496,58.083 L86.305,58.083 C85.974,58.083 85.59,58.083 85.256,58.339 C84.899,58.621 84.874,58.951 84.874,59.31 C84.874,59.694 84.899,60.027 85.31,60.359 C85.692,60.664 86.639,60.949 86.999,61.052 L89.914,61.869 C91.527,62.329 92.628,62.688 93.292,63.406 C93.985,64.149 94.112,65.146 94.112,65.888 C94.112,67.526 93.496,68.37 92.985,68.779 C92.294,69.293 91.45,69.341 90.813,69.341 L82.137,69.341 L82.137,67.038" id="Fill-43"></path>
                    <path d="M95.632,67.038 L103.259,67.038 C103.566,67.038 103.975,66.987 104.257,66.657 C104.512,66.372 104.512,66.017 104.512,65.813 C104.512,65.452 104.461,65.094 104.128,64.785 C103.924,64.609 103.566,64.431 101.673,63.917 L99.061,63.198 C97.627,62.817 96.63,62.306 96.095,61.564 C95.557,60.821 95.454,59.922 95.454,59.262 C95.454,58.594 95.557,57.698 96.095,56.956 C96.885,55.857 98.192,55.777 99.343,55.777 L106.994,55.777 L106.994,58.083 L99.803,58.083 C99.473,58.083 99.085,58.083 98.755,58.339 C98.397,58.621 98.369,58.951 98.369,59.31 C98.369,59.694 98.397,60.027 98.806,60.359 C99.188,60.664 100.137,60.949 100.494,61.052 L103.413,61.869 C105.024,62.329 106.126,62.688 106.791,63.406 C107.483,64.149 107.61,65.146 107.61,65.888 C107.61,67.526 106.994,68.37 106.481,68.779 C105.793,69.293 104.948,69.341 104.308,69.341 L95.632,69.341 L95.632,67.038" id="Fill-44"></path>
                    <path d="M114.069,69.341 C112.686,69.341 111.048,69.214 109.924,67.628 C109.026,66.348 108.95,64.479 108.95,62.688 C108.95,60.154 109.079,58.288 110.564,57.007 C112.048,55.727 114.351,55.727 115.631,55.727 C117.217,55.727 118.853,55.802 120.106,56.599 C121.694,57.597 122.027,59.285 122.027,60.999 C122.027,61.693 121.951,62.484 121.386,63.048 C120.978,63.457 120.467,63.559 119.928,63.559 L112.048,63.559 C112.048,64.149 112.123,65.017 112.226,65.425 C112.608,66.886 113.864,67.038 114.964,67.038 L121.59,67.038 L121.59,69.341 L114.069,69.341 Z M118.267,61.257 C118.853,61.257 118.931,60.821 118.931,60.46 C118.931,59.616 118.495,58.976 118.063,58.645 C117.319,58.083 116.347,58.03 115.501,58.03 C114.708,58.03 113.48,58.005 112.662,58.927 C112.048,59.616 112.073,60.359 112.048,61.257 L118.267,61.257 L118.267,61.257 Z" id="Fill-45"></path>
                    <path d="M123.548,67.038 L131.176,67.038 C131.483,67.038 131.892,66.987 132.174,66.657 C132.43,66.372 132.43,66.017 132.43,65.813 C132.43,65.452 132.378,65.094 132.044,64.785 C131.84,64.609 131.483,64.431 129.589,63.917 L126.978,63.198 C125.545,62.817 124.546,62.306 124.011,61.564 C123.474,60.821 123.371,59.922 123.371,59.262 C123.371,58.594 123.474,57.698 124.011,56.956 C124.802,55.857 126.11,55.777 127.261,55.777 L134.911,55.777 L134.911,58.083 L127.72,58.083 C127.389,58.083 127.002,58.083 126.671,58.339 C126.314,58.621 126.287,58.951 126.287,59.31 C126.287,59.694 126.314,60.027 126.722,60.359 C127.105,60.664 128.054,60.949 128.411,61.052 L131.329,61.869 C132.941,62.329 134.042,62.688 134.707,63.406 C135.399,64.149 135.527,65.146 135.527,65.888 C135.527,67.526 134.911,68.37 134.398,68.779 C133.709,69.293 132.865,69.341 132.225,69.341 L123.548,69.341 L123.548,67.038" id="Fill-46"></path>
                </g>
            </g>
        </g>
    </g>
</svg>