<?xml version="1.0" encoding="UTF-8"?>
<svg width="298px" height="85px" viewBox="0 0 298 85" version="1.1" xmlns="http://www.w3.org/2000/svg" xmlns:xlink="http://www.w3.org/1999/xlink">
    <!-- Generator: Sketch 61.2 (89653) - https://sketch.com -->
    <title>AEB_25_color</title>
    <desc>Created with Sketch.</desc>
    <g id="Symbols" stroke="none" stroke-width="1" fill="none" fill-rule="evenodd">
        <g id="Logo-/-White" transform="translate(-1.000000, -107.000000)" fill-rule="nonzero">
            <g id="AEB_25_color" transform="translate(1.000000, 107.000000)">
                <g id="AEB-+-Stars" transform="translate(106.000000, 15.000000)">
                    <path d="M37.4154149,31.9863544 C37.3385866,32.5181941 37.4154149,32.8221024 37.4922433,32.9740566 C37.7227284,33.277965 38.260527,33.2019879 38.4910121,33.2019879 L43.4080276,33.2019879 C43.8689978,33.2019879 44.7141098,33.2019879 45.2519084,32.5941712 C45.6360502,32.2142857 45.789707,31.4545148 45.8665353,30.9226752 C45.9433637,30.4668127 45.9433637,29.7070418 45.7128786,29.2511792 C45.5592219,29.023248 45.0982517,28.5673854 44.0994829,28.5673854 L37.7995568,28.5673854 L37.4154149,31.9863544 L37.4154149,31.9863544 Z M38.1836986,26.2120957 L44.1763113,26.2120957 C44.7909382,26.2120957 45.4823935,26.2120957 45.9433637,25.604279 C46.0970204,25.4523248 46.3275055,25.0724394 46.4811623,23.932783 C46.5579906,23.4769205 46.634819,22.6411725 46.1738488,22.18531 C45.789707,21.7294474 45.2519084,21.7294474 44.7141098,21.7294474 L39.6434376,21.7294474 C39.4129525,21.7294474 39.105639,21.7294474 38.9519823,21.8814016 C38.7214972,22.1093329 38.6446688,22.4132412 38.6446688,22.5651954 L38.1836986,26.2120957 Z M46.2506772,19.3741577 C47.1726176,19.3741577 48.3250431,19.4501348 49.0933268,20.3618598 C49.8616104,21.2735849 49.8616104,22.7931267 49.7079537,23.8568059 C49.6311253,24.768531 49.4774686,25.6802561 48.6323566,26.516004 C48.094558,27.0478437 47.6335878,27.2757749 46.9421325,27.351752 L46.9421325,27.4277291 C47.7104162,27.5037062 48.3250431,27.8835916 48.6323566,28.2634771 C49.3238119,29.0992251 49.1701551,30.2388814 49.0164984,31.1506065 C48.8628417,32.2142857 48.7091849,33.5058962 47.6335878,34.5695755 C46.5579906,35.6332547 45.4823935,35.6332547 44.4836247,35.6332547 L36.6471312,35.6332547 C35.8020192,35.6332547 35.0337355,35.7092318 34.495937,34.9494609 C34.3422802,34.7975067 34.0349668,34.18969 34.1117951,33.277965 L35.5715341,21.6534704 C35.6483625,21.0456536 35.8788476,20.3618598 36.2629894,19.9819744 C36.800788,19.3741577 37.5690717,19.2981806 38.1068702,19.2981806 L46.2506772,19.2981806 L46.2506772,19.3741577 Z" id="XMLID_375_" fill="#FFFFFF"></path>
                    <path d="M21.3582861,35.6332547 C20.6668308,35.6332547 20.0522039,35.6332547 19.5144053,35.1014151 C19.0534351,34.5695755 19.0534351,33.8098046 19.1302635,33.2019879 L20.5900025,21.6534704 C20.6668308,20.9696765 20.9741443,20.3618598 21.3582861,19.9819744 C21.9729131,19.3741577 22.7411967,19.3741577 23.4326521,19.3741577 L33.9581384,19.3741577 L33.6508249,21.8054245 L24.7387343,21.8054245 C24.4314208,21.8054245 24.1241074,21.8054245 23.8936223,22.0333558 C23.5863088,22.2612871 23.5863088,22.5651954 23.5094804,22.7931267 L23.1253386,26.0601415 L32.8825412,26.0601415 L32.5752278,28.4914084 L22.8180251,28.4914084 L22.3570549,32.2902628 C22.3570549,32.5181941 22.3570549,32.8221024 22.5107116,32.8980795 C22.6643684,33.0500337 23.0485102,33.1260108 23.5094804,33.1260108 L32.2679143,33.1260108 L31.9606008,35.5572776 L21.3582861,35.5572776" id="XMLID_257_" fill="#FFFFFF"></path>
                    <path d="M6.6072396,29.3271563 L12.9071657,29.3271563 L11.0632849,22.7171496 C10.9864565,22.4892183 10.9096282,22.0333558 10.6791431,22.0333558 C10.448658,22.0333558 10.2181729,22.4892183 10.1413445,22.7171496 L6.6072396,29.3271563 L6.6072396,29.3271563 Z M8.06697858,21.0456536 C8.83526225,19.678066 9.52671756,19.2222035 10.9864565,19.2222035 C12.3693672,19.2222035 13.0608225,19.678066 13.4449643,21.0456536 L17.8241812,35.6332547 L14.5205614,35.6332547 L13.3681359,31.5304919 L5.45481409,31.5304919 L3.3036198,35.6332547 L0,35.6332547 L8.06697858,21.0456536 Z" id="XMLID_380_" fill="#FFFFFF"></path>
                    <polyline id="XMLID_253_" fill="#FFFF00" points="37.0312731 7.06586927 39.4897808 5.39437332 41.6409751 7.06586927 41.1031766 4.40667116 43.6385127 2.7351752 40.7190347 2.7351752 40.1812361 0 38.9519823 2.7351752 36.1093327 2.7351752 38.1836986 4.40667116 37.0312731 7.06586927"></polyline>
                    <polyline id="XMLID_252_" fill="#FFFF00" points="24.5850776 10.256907 27.1204137 8.58541105 29.271608 10.256907 28.7338094 7.59770889 31.2691455 5.92621294 28.3496676 5.92621294 27.811869 3.19103774 26.5826151 5.92621294 23.6631372 5.92621294 25.8143314 7.59770889 24.5850776 10.256907"></polyline>
                    <polyline id="XMLID_251_" fill="#FFFF00" points="23.2789953 47.0298181 22.7411967 44.2946429 21.5119429 47.0298181 18.5924649 47.0298181 20.7436592 48.701314 19.5144053 51.3605121 22.0497414 49.6890162 24.2009357 51.3605121 23.5863088 48.701314 26.1984733 47.0298181 23.2789953 47.0298181"></polyline>
                    <polyline id="XMLID_250_" fill="#FFFF00" points="34.8800788 50.1448787 34.3422802 47.4097035 33.1130263 50.1448787 30.1935484 50.1448787 32.3447427 51.8163747 31.1154888 54.5515499 33.6508249 52.8800539 35.7251908 54.5515499 35.1873923 51.8163747 37.7227284 50.1448787 34.8800788 50.1448787"></polyline>
                    <polyline id="XMLID_249_" fill="#FFFF00" points="47.2494459 47.0298181 46.7116474 44.2946429 45.4823935 47.0298181 42.5629155 47.0298181 44.7141098 48.701314 43.4848559 51.3605121 46.0201921 49.6890162 48.094558 51.3605121 47.5567594 48.701314 50.0920955 47.0298181 47.2494459 47.0298181"></polyline>
                    <polyline id="XMLID_248_" fill="#FFFF00" points="57.083477 38.2924528 56.5456784 35.5572776 55.3164245 38.2924528 52.3969466 38.2924528 54.5481409 39.9639488 53.318887 42.699124 55.8542231 41.027628 58.0054174 42.699124 57.3907904 39.9639488 60.0029549 38.2924528 57.083477 38.2924528"></polyline>
                    <polyline id="XMLID_247_" fill="#FFFF00" points="64.612657 26.440027 61.7700074 26.440027 61.2322088 23.7048518 60.0029549 26.440027 57.083477 26.440027 59.2346713 28.1115229 58.0054174 30.770721 60.5407535 29.0992251 62.6151194 30.770721 62.0773209 28.1115229 64.612657 26.440027"></polyline>
                    <polyline id="XMLID_246_" fill="#FFFF00" points="56.3151933 18.9182951 58.8505294 17.2467992 60.9248953 18.9182951 60.3870968 16.259097 62.9224329 14.5876011 60.0029549 14.5876011 59.4651564 11.8524259 58.2359025 14.5876011 55.3932529 14.5876011 57.5444472 16.259097 56.3151933 18.9182951"></polyline>
                    <polyline id="XMLID_245_" fill="#FFFF00" points="51.7823196 3.19103774 50.5530657 5.92621294 47.7104162 5.92621294 49.8616104 7.59770889 48.6323566 10.256907 51.1676927 8.58541105 53.2420586 10.256907 52.70426 7.59770889 55.2395962 5.92621294 52.3201182 5.92621294 51.7823196 3.19103774"></polyline>
                </g>
                <g id="Businesses" transform="translate(197.000000, 54.000000)" fill="#FFFFFF">
                    <path d="M8.54804235,0.585714286 C9.22885989,0.585714286 10.212263,0.658928571 10.8930805,1.31785714 C11.5738981,2.05 11.7251908,3.14821429 11.7251908,3.95357143 C11.7251908,4.6125 11.7251908,5.27142857 11.1200197,5.93035714 C10.7417877,6.36964286 10.3635558,6.51607143 9.90967742,6.58928571 L9.90967742,6.6625 C10.5148486,6.73571429 10.9687269,6.95535714 11.3469589,7.32142857 C11.95213,7.98035714 11.95213,8.85892857 11.95213,9.51785714 C11.95213,10.3232143 11.95213,11.3482143 11.1956661,12.0803571 C10.4392022,12.8857143 9.68273824,12.8857143 8.85062792,12.8857143 L2.79891652,12.8857143 C2.19374538,12.8857143 1.58857424,12.9589286 1.0590495,12.3732143 C0.90775671,12.2267857 0.60517114,11.8607143 0.60517114,11.1285714 L0.60517114,2.34285714 C0.60517114,1.90357143 0.756463925,1.39107143 0.983403103,1.09821429 C1.36163507,0.658928571 1.89115981,0.585714286 2.34503817,0.585714286 L8.54804235,0.585714286 L8.54804235,0.585714286 Z M2.95020931,5.78392857 L7.64028564,5.78392857 C8.094164,5.78392857 8.62368875,5.78392857 8.92627432,5.34464286 C9.00192071,5.27142857 9.22885989,4.90535714 9.22885989,4.1 C9.22885989,3.73392857 9.22885989,3.14821429 8.77498153,2.78214286 C8.39674957,2.48928571 8.01851761,2.48928571 7.56463925,2.48928571 L3.63102684,2.48928571 C3.40408766,2.48928571 3.25279488,2.48928571 3.10150209,2.63571429 C2.95020931,2.78214286 2.95020931,3.075 2.95020931,3.14821429 L2.95020931,5.78392857 L2.95020931,5.78392857 Z M2.95020931,10.1767857 C2.95020931,10.6160714 3.0258557,10.7625 3.10150209,10.9089286 C3.32844127,11.1285714 3.70667323,11.1285714 3.85796602,11.1285714 L7.64028564,11.1285714 C8.01851761,11.1285714 8.69933514,11.1285714 9.00192071,10.6892857 C9.30450628,10.3964286 9.30450628,9.81071429 9.30450628,9.44464286 C9.30450628,9.07857143 9.30450628,8.56607143 9.00192071,8.2 C8.85062792,7.98035714 8.47239596,7.6875 7.71593204,7.6875 L2.87456292,7.6875 L2.87456292,10.1767857 L2.95020931,10.1767857 Z" id="XMLID_307_"></path>
                    <path d="M21.7105147,12.5928571 C21.2566363,12.9589286 20.7271115,12.9589286 20.1975868,12.9589286 L16.7934991,12.9589286 C15.6588033,12.9589286 14.9023393,12.8125 14.2971682,12.2267857 C13.4650579,11.5678571 13.3137651,10.6160714 13.3137651,9.51785714 L13.3137651,3.66071429 L15.4318641,3.66071429 L15.4318641,9.15178571 C15.4318641,9.95714286 15.5075105,10.4696429 15.810096,10.7625 C16.188328,11.275 16.7934991,11.3482143 17.5499631,11.3482143 L19.2898301,11.3482143 C19.5924157,11.3482143 19.7437084,11.275 19.8950012,11.1285714 C20.046294,10.9821429 20.046294,10.7625 20.046294,10.5428571 L20.046294,3.5875 L22.164393,3.5875 L22.164393,11.275 C22.2400394,11.5678571 22.2400394,12.1535714 21.7105147,12.5928571 Z" id="XMLID_305_"></path>
                    <path d="M23.5260281,11.3482143 L28.9725683,11.3482143 C29.1995075,11.3482143 29.5020931,11.3482143 29.6533859,11.0553571 C29.8046787,10.8357143 29.8046787,10.6160714 29.8046787,10.4696429 C29.8046787,10.25 29.8046787,9.95714286 29.5020931,9.7375 C29.3508003,9.59107143 29.1238611,9.51785714 27.7622261,9.15178571 L25.8710662,8.63928571 C24.8876631,8.34642857 24.1311992,8.05357143 23.7529672,7.54107143 C23.3747353,7.02857143 23.2990889,6.44285714 23.2990889,5.93035714 C23.2990889,5.49107143 23.3747353,4.83214286 23.7529672,4.31964286 C24.282492,3.5875 25.2658951,3.51428571 26.0980054,3.51428571 L31.5445457,3.51428571 L31.5445457,5.125 L26.400591,5.125 C26.1736518,5.125 25.8710662,5.125 25.6441271,5.27142857 C25.4171879,5.49107143 25.3415415,5.71071429 25.3415415,5.93035714 C25.3415415,6.22321429 25.3415415,6.44285714 25.6441271,6.6625 C25.9467126,6.88214286 26.5518838,7.10178571 26.8544693,7.175 L28.8969219,7.76071429 C30.0316178,8.05357143 30.7880818,8.34642857 31.3176065,8.78571429 C31.7714849,9.29821429 31.9227776,9.95714286 31.9227776,10.4696429 C31.9227776,11.5678571 31.4688993,12.1535714 31.0906673,12.4464286 C30.636789,12.8125 30.0316178,12.8125 29.5777395,12.8125 L23.4503817,12.8125 L23.4503817,11.3482143 L23.5260281,11.3482143 Z" id="XMLID_303_"></path>
                    <path d="M33.2844127,2.26964286 L33.2844127,0.658928571 L35.4025117,0.658928571 L35.4025117,2.26964286 L33.2844127,2.26964286 Z M33.2844127,3.5875 L35.4025117,3.5875 L35.4025117,12.8857143 L33.2844127,12.8857143 L33.2844127,3.5875 Z" id="XMLID_300_"></path>
                    <path d="M36.8397932,5.05178571 C36.8397932,4.75892857 36.8397932,4.31964286 37.1423787,4.02678571 C37.5206107,3.5875 38.2014282,3.5875 38.5796602,3.5875 L41.9837478,3.5875 C42.9671509,3.5875 43.8749077,3.66071429 44.707018,4.31964286 C45.2365427,4.75892857 45.6147747,5.49107143 45.6147747,6.73571429 L45.6147747,12.8857143 L43.4966757,12.8857143 L43.4966757,7.39464286 C43.4966757,6.80892857 43.4210293,6.15 43.1184437,5.71071429 C42.8158582,5.34464286 42.3619798,5.125 41.6055159,5.125 L39.4117705,5.125 C39.2604777,5.125 39.1848313,5.125 39.0335385,5.19821429 C38.9578921,5.34464286 38.9578921,5.49107143 38.9578921,5.56428571 L38.9578921,12.8125 L36.8397932,12.8125 L36.8397932,5.05178571 L36.8397932,5.05178571 Z" id="XMLID_298_"></path>
                    <path d="M50.5317902,12.9589286 C49.5483871,12.9589286 48.4136912,12.8857143 47.5815809,11.7875 C46.9764098,10.9089286 46.9007634,9.59107143 46.9007634,8.41964286 C46.9007634,6.6625 46.9764098,5.41785714 48.0354592,4.53928571 C49.0945087,3.66071429 50.7587294,3.66071429 51.6664861,3.66071429 C52.801182,3.66071429 53.9358779,3.73392857 54.8436346,4.24642857 C55.9783305,4.90535714 56.2052696,6.07678571 56.2052696,7.24821429 C56.2052696,7.6875 56.1296232,8.27321429 55.7513913,8.63928571 C55.4488057,8.93214286 55.0705738,9.00535714 54.6923418,9.00535714 L49.0945087,9.00535714 C49.0945087,9.44464286 49.1701551,10.0303571 49.2458015,10.3232143 C49.5483871,11.3482143 50.3804974,11.4214286 51.2126077,11.4214286 L55.9026841,11.4214286 L55.9026841,13.0321429 L50.5317902,13.0321429 L50.5317902,12.9589286 Z M53.4819995,7.39464286 C53.9358779,7.39464286 53.9358779,7.10178571 53.9358779,6.88214286 C53.9358779,6.29642857 53.6332923,5.85714286 53.3307067,5.6375 C52.801182,5.27142857 52.1203644,5.19821429 51.5151933,5.19821429 C50.9856686,5.19821429 50.0779118,5.19821429 49.4727407,5.78392857 C49.0188623,6.22321429 49.0188623,6.73571429 49.0188623,7.39464286 L53.4819995,7.39464286 Z" id="XMLID_295_"></path>
                    <path d="M57.1886727,11.3482143 L62.635213,11.3482143 C62.8621522,11.3482143 63.1647377,11.3482143 63.3160305,11.0553571 C63.4673233,10.8357143 63.4673233,10.6160714 63.4673233,10.4696429 C63.4673233,10.25 63.4673233,9.95714286 63.1647377,9.7375 C63.013445,9.59107143 62.7865058,9.51785714 61.4248707,9.15178571 L59.6093573,8.63928571 C58.6259542,8.34642857 57.8694903,8.05357143 57.4912583,7.54107143 C57.1130263,7.02857143 57.03738,6.44285714 57.03738,5.93035714 C57.03738,5.49107143 57.1130263,4.83214286 57.4912583,4.31964286 C58.0207831,3.5875 59.0041862,3.51428571 59.8362965,3.51428571 L65.2828367,3.51428571 L65.2828367,5.125 L60.138882,5.125 C59.9119429,5.125 59.6093573,5.125 59.3824181,5.27142857 C59.1554789,5.49107143 59.0798326,5.71071429 59.0798326,5.93035714 C59.0798326,6.22321429 59.0798326,6.44285714 59.3824181,6.6625 C59.6850037,6.88214286 60.2901748,7.10178571 60.5927604,7.175 L62.635213,7.76071429 C63.7699089,8.05357143 64.5263728,8.34642857 65.0558976,8.78571429 C65.5097759,9.29821429 65.6610687,9.95714286 65.6610687,10.4696429 C65.6610687,11.5678571 65.2071903,12.1535714 64.8289584,12.4464286 C64.37508,12.8125 63.7699089,12.8125 63.3160305,12.8125 L57.1886727,12.8125 L57.1886727,11.3482143 L57.1886727,11.3482143 Z" id="XMLID_293_"></path>
                    <path d="M66.7957646,11.3482143 L72.2423049,11.3482143 C72.469244,11.3482143 72.7718296,11.3482143 72.9231224,11.0553571 C73.0744152,10.8357143 73.0744152,10.6160714 73.0744152,10.4696429 C73.0744152,10.25 73.0744152,9.95714286 72.7718296,9.7375 C72.6205368,9.59107143 72.3935976,9.51785714 71.0319626,9.15178571 L69.1408028,8.63928571 C68.1573997,8.34642857 67.4009357,8.05357143 67.0227038,7.54107143 C66.6444718,7.02857143 66.5688254,6.44285714 66.5688254,5.93035714 C66.5688254,5.49107143 66.6444718,4.83214286 67.0227038,4.31964286 C67.5522285,3.5875 68.5356316,3.51428571 69.3677419,3.51428571 L74.8142822,3.51428571 L74.8142822,5.125 L69.6703275,5.125 C69.4433883,5.125 69.1408028,5.125 68.9138636,5.27142857 C68.6869244,5.49107143 68.611278,5.71071429 68.611278,5.93035714 C68.611278,6.22321429 68.611278,6.44285714 68.9138636,6.6625 C69.2164492,6.88214286 69.8216203,7.10178571 70.1242059,7.175 L72.1666585,7.76071429 C73.3013543,8.05357143 74.0578183,8.34642857 74.587343,8.78571429 C75.0412214,9.29821429 75.1925142,9.95714286 75.1925142,10.4696429 C75.1925142,11.5678571 74.7386358,12.1535714 74.3604038,12.4464286 C73.9065255,12.8125 73.3013543,12.8125 72.847476,12.8125 L66.7201182,12.8125 L66.7201182,11.3482143 L66.7957646,11.3482143 Z" id="XMLID_291_"></path>
                    <path d="M79.8825905,12.9589286 C78.8991874,12.9589286 77.7644915,12.8857143 76.9323812,11.7875 C76.32721,10.9089286 76.2515637,9.59107143 76.2515637,8.41964286 C76.2515637,6.6625 76.32721,5.41785714 77.3862595,4.53928571 C78.445309,3.66071429 80.1095297,3.66071429 81.0172864,3.66071429 C82.1519823,3.66071429 83.2866782,3.73392857 84.1944349,4.24642857 C85.3291308,4.90535714 85.5560699,6.07678571 85.5560699,7.24821429 C85.5560699,7.6875 85.4804235,8.27321429 85.1021916,8.63928571 C84.799606,8.93214286 84.421374,9.00535714 84.0431421,9.00535714 L78.445309,9.00535714 C78.445309,9.44464286 78.5209554,10.0303571 78.5966018,10.3232143 C78.8991874,11.3482143 79.7312977,11.4214286 80.563408,11.4214286 L85.2534844,11.4214286 L85.2534844,13.0321429 L79.8825905,13.0321429 L79.8825905,12.9589286 Z M82.8327998,7.39464286 C83.2866782,7.39464286 83.2866782,7.10178571 83.2866782,6.88214286 C83.2866782,6.29642857 82.9840926,5.85714286 82.681507,5.6375 C82.1519823,5.27142857 81.4711647,5.19821429 80.8659936,5.19821429 C80.3364689,5.19821429 79.4287121,5.19821429 78.823541,5.78392857 C78.3696626,6.22321429 78.3696626,6.73571429 78.3696626,7.39464286 L82.8327998,7.39464286 Z" id="XMLID_288_"></path>
                    <path d="M86.6151194,11.3482143 L92.0616597,11.3482143 C92.2885989,11.3482143 92.5911844,11.3482143 92.7424772,11.0553571 C92.89377,10.8357143 92.89377,10.6160714 92.89377,10.4696429 C92.89377,10.25 92.89377,9.95714286 92.5911844,9.7375 C92.4398917,9.59107143 92.2129525,9.51785714 90.8513174,9.15178571 L89.035804,8.63928571 C88.0524009,8.34642857 87.295937,8.05357143 86.917705,7.54107143 C86.539473,7.02857143 86.4638266,6.44285714 86.4638266,5.93035714 C86.4638266,5.49107143 86.539473,4.83214286 86.917705,4.31964286 C87.4472297,3.5875 88.4306328,3.51428571 89.2627432,3.51428571 L94.7092834,3.51428571 L94.7092834,5.125 L89.5653287,5.125 C89.3383896,5.125 89.035804,5.125 88.8088648,5.27142857 C88.5819256,5.49107143 88.5062792,5.71071429 88.5062792,5.93035714 C88.5062792,6.22321429 88.5062792,6.44285714 88.8088648,6.6625 C89.1114504,6.88214286 89.7166215,7.10178571 90.0192071,7.175 L92.0616597,7.76071429 C93.1963556,8.05357143 93.9528195,8.34642857 94.4823443,8.78571429 C94.9362226,9.29821429 95.0875154,9.95714286 95.0875154,10.4696429 C95.0875154,11.5678571 94.633637,12.1535714 94.2554051,12.4464286 C93.8015267,12.8125 93.1963556,12.8125 92.7424772,12.8125 L86.6151194,12.8125 L86.6151194,11.3482143 L86.6151194,11.3482143 Z" id="XMLID_286_"></path>
                </g>
                <g id="of-European" transform="translate(197.000000, 36.000000)" fill="#FFFFFF">
                    <path d="M8.98756816,4.46607143 C10.1204549,5.49107143 10.1959807,7.24821429 10.1959807,8.2 C10.1959807,10.1767857 9.6673002,11.3482143 8.98756816,12.0071429 C7.9302072,12.9589286 6.19311419,13.0321429 5.13575323,13.0321429 C4.00286649,13.0321429 2.34129927,12.9589286 1.28393831,12.0071429 C0.151051566,10.9821429 0.0755257828,9.225 0.0755257828,8.27321429 C0.0755257828,7.24821429 0.226577348,5.49107143 1.28393831,4.46607143 C2.34129927,3.51428571 4.00286649,3.51428571 5.13575323,3.51428571 C6.19311419,3.44107143 7.9302072,3.51428571 8.98756816,4.46607143 Z M2.79445396,10.6892857 C3.39866023,11.3482143 4.30496962,11.4946429 5.13575323,11.4946429 C5.96653684,11.4946429 6.79732045,11.4214286 7.40152672,10.6892857 C8.00573298,10.0303571 8.00573298,9.07857143 8.00573298,8.27321429 C8.00573298,7.61428571 8.08125876,6.51607143 7.40152672,5.78392857 C6.79732045,5.125 5.89101106,5.05178571 5.06022745,5.05178571 C4.3804954,5.05178571 3.32313444,5.125 2.71892818,5.78392857 C2.11472192,6.44285714 2.11472192,7.61428571 2.11472192,8.27321429 C2.11472192,9.00535714 2.1902477,9.95714286 2.79445396,10.6892857 Z" id="XMLID_334_"></path>
                    <path d="M12.159651,12.8857143 L12.159651,5.19821429 L10.8001869,5.19821429 L10.8001869,3.66071429 L12.159651,3.66071429 C12.159651,3.075 12.3107026,1.97678571 13.1414862,1.31785714 C14.0477956,0.585714286 15.7848886,0.5125 16.9177754,0.5125 L16.9177754,2.05 C15.8604144,2.05 15.1806823,2.05 14.8030534,2.34285714 C14.5009503,2.48928571 14.274373,2.92857143 14.274373,3.66071429 L16.9177754,3.66071429 L16.9177754,5.27142857 L14.274373,5.27142857 L14.274373,13.0321429 L12.159651,13.0321429 L12.159651,12.8857143 Z" id="XMLID_332_"></path>
                    <path d="M24.3193021,12.8857143 C23.7906216,12.8857143 23.2619411,12.8857143 22.8843122,12.5196429 C22.4311575,12.0803571 22.4311575,11.5678571 22.4311575,11.0553571 L22.4311575,2.34285714 C22.4311575,1.83035714 22.5822091,1.39107143 22.8843122,1.025 C23.3374669,0.585714286 23.9416732,0.585714286 24.3948279,0.585714286 L32.4760866,0.585714286 L32.4760866,2.41607143 L25.6032404,2.41607143 C25.376663,2.41607143 25.1500857,2.41607143 24.9235083,2.5625 C24.696931,2.70892857 24.696931,3.00178571 24.696931,3.14821429 L24.696931,5.6375 L32.2495093,5.6375 L32.2495093,7.46785714 L24.696931,7.46785714 L24.696931,10.3232143 C24.696931,10.5428571 24.7724568,10.6892857 24.8479826,10.7625 C24.9990341,10.9089286 25.3011372,10.9089286 25.6787662,10.9089286 L32.4760866,10.9089286 L32.4760866,12.7392857 L24.3193021,12.7392857 L24.3193021,12.8857143 Z" id="XMLID_330_"></path>
                    <path d="M42.2189126,12.5196429 C41.7657579,12.8857143 41.2370774,12.8857143 40.7083969,12.8857143 L37.3097367,12.8857143 C36.17685,12.8857143 35.4971179,12.7392857 34.8173859,12.1535714 C33.9866023,11.4946429 33.8355507,10.5428571 33.8355507,9.44464286 L33.8355507,3.5875 L35.9502726,3.5875 L35.9502726,9.07857143 C35.9502726,9.88392857 36.0257984,10.3964286 36.3279015,10.6892857 C36.7055305,11.2017857 37.3097367,11.275 38.0649945,11.275 L39.8020876,11.275 C40.1041907,11.275 40.2552422,11.2017857 40.4062938,11.0553571 C40.5573454,10.9089286 40.5573454,10.6892857 40.5573454,10.4696429 L40.5573454,3.51428571 L42.6720673,3.51428571 L42.6720673,11.2017857 C42.6720673,11.5678571 42.6720673,12.1535714 42.2189126,12.5196429 Z" id="XMLID_328_"></path>
                    <path d="M44.182583,7.10178571 C44.182583,6.07678571 44.3336345,5.05178571 45.1644181,4.39285714 C46.0707275,3.66071429 47.2791401,3.5875 48.0343979,3.5875 L49.4693878,3.5875 L49.4693878,5.19821429 L48.5630784,5.19821429 C48.0343979,5.19821429 47.2791401,5.27142857 46.7504596,5.85714286 C46.3728307,6.29642857 46.2973049,6.95535714 46.2973049,7.6875 L46.2973049,12.9589286 L44.182583,12.9589286 L44.182583,7.10178571 Z" id="XMLID_326_"></path>
                    <path d="M58.6080075,4.46607143 C59.7408942,5.49107143 59.81642,7.24821429 59.81642,8.2 C59.81642,10.1767857 59.2877395,11.3482143 58.6080075,12.0071429 C57.5506465,12.9589286 55.8135535,13.0321429 54.7561926,13.0321429 C53.6233058,13.0321429 51.9617386,12.9589286 50.9043776,12.0071429 C49.7714909,10.9821429 49.6959651,9.225 49.6959651,8.27321429 C49.6959651,7.24821429 49.8470167,5.49107143 50.9043776,4.46607143 C51.9617386,3.51428571 53.6233058,3.51428571 54.7561926,3.51428571 C55.8890793,3.44107143 57.5506465,3.51428571 58.6080075,4.46607143 Z M52.4148933,10.6892857 C53.0190995,11.3482143 53.9254089,11.4946429 54.7561926,11.4946429 C55.5869762,11.4946429 56.4177598,11.4214286 57.021966,10.6892857 C57.6261723,10.0303571 57.6261723,9.07857143 57.6261723,8.27321429 C57.6261723,7.61428571 57.7016981,6.51607143 57.021966,5.78392857 C56.4177598,5.125 55.5114504,5.05178571 54.6806668,5.05178571 C54.0009347,5.05178571 52.9435738,5.125 52.3393675,5.78392857 C51.7351612,6.44285714 51.7351612,7.61428571 51.7351612,8.27321429 C51.810687,9.00535714 51.810687,9.95714286 52.4148933,10.6892857 Z" id="XMLID_323_"></path>
                    <path d="M63.1395544,15.8875 L61.0248325,15.8875 L61.0248325,5.05178571 C61.0248325,4.46607143 61.3269357,4.1 61.553513,3.88035714 C61.9311419,3.5875 62.3842966,3.5875 62.7619255,3.5875 L66.08506,3.5875 C66.6892662,3.5875 67.9732045,3.66071429 68.8795139,4.6125 C69.8613491,5.56428571 69.8613491,7.02857143 69.8613491,8.05357143 C69.8613491,9.29821429 69.7858233,10.6160714 69.1060913,11.5678571 C68.1997819,12.8125 66.6892662,12.8857143 65.7074311,12.8857143 L62.9885029,12.8857143 L62.9885029,15.8875 L63.1395544,15.8875 Z M65.5563795,11.3482143 C66.6137405,11.3482143 67.1424209,10.8357143 67.3689983,10.4696429 C67.5955756,10.1767857 67.7466272,9.59107143 67.7466272,8.2 C67.7466272,6.95535714 67.5955756,6.44285714 67.5200499,6.22321429 C67.2179467,5.6375 66.6137405,5.19821429 65.6319053,5.19821429 L63.5171834,5.19821429 C63.4416576,5.19821429 63.290606,5.27142857 63.2150802,5.34464286 C63.1395544,5.41785714 63.0640287,5.56428571 63.0640287,5.6375 L63.0640287,11.3482143 L65.5563795,11.3482143 Z" id="XMLID_320_"></path>
                    <path d="M74.5439477,12.8857143 C73.5621125,12.8857143 72.4292257,12.8125 71.5984421,11.7142857 C70.9942359,10.8357143 70.9187101,9.51785714 70.9187101,8.34642857 C70.9187101,6.58928571 70.9942359,5.34464286 72.0515968,4.46607143 C73.1089578,3.5875 74.770525,3.5875 75.6768344,3.5875 C76.8097211,3.5875 77.9426079,3.66071429 78.8489173,4.17321429 C79.981804,4.83214286 80.2083814,6.00357143 80.2083814,7.175 C80.2083814,7.61428571 80.1328556,8.2 79.7552267,8.56607143 C79.4531235,8.85892857 79.0754946,8.93214286 78.6978657,8.93214286 L73.1089578,8.93214286 C73.1089578,9.37142857 73.1844836,9.95714286 73.2600093,10.25 C73.5621125,11.275 74.3928961,11.3482143 75.2236797,11.3482143 L79.9062782,11.3482143 L79.9062782,12.9589286 L74.5439477,12.9589286 L74.5439477,12.8857143 Z M77.564979,7.32142857 C78.0181337,7.32142857 78.0181337,7.02857143 78.0181337,6.80892857 C78.0181337,6.22321429 77.7160305,5.78392857 77.4139274,5.56428571 C76.8852469,5.19821429 76.2055149,5.125 75.6013086,5.125 C75.0726281,5.125 74.1663187,5.125 73.5621125,5.71071429 C73.1089578,6.15 73.1089578,6.6625 73.1089578,7.32142857 L77.564979,7.32142857 Z" id="XMLID_317_"></path>
                    <path d="M87.307805,3.5875 C88.1385886,3.5875 88.8938464,3.88035714 89.2714753,4.31964286 C89.6491042,4.75892857 89.9512074,5.49107143 89.9512074,6.51607143 L89.9512074,11.3482143 C89.9512074,11.7142857 89.9512074,12.2267857 89.5735784,12.5196429 C89.1959495,12.8857143 88.667269,12.8857143 88.2141143,12.8857143 L83.6070416,12.8857143 C83.0783611,12.8857143 82.3986291,12.8857143 81.8699486,12.4464286 C81.1146908,11.7875 81.039165,10.6160714 81.039165,9.88392857 C81.039165,9.07857143 81.1146908,8.2 81.8699486,7.61428571 C82.4741549,7.10178571 83.1538869,7.10178571 83.6070416,7.10178571 L87.7609597,7.10178571 L87.7609597,6.44285714 C87.7609597,6.15 87.7609597,5.85714286 87.4588565,5.56428571 C87.1567534,5.19821429 86.7791245,5.125 86.4014956,5.125 L81.6433712,5.125 L81.6433712,3.51428571 L87.307805,3.51428571 L87.307805,3.5875 Z M84.3622994,8.7125 C84.2112479,8.7125 83.8336189,8.7125 83.6070416,9.00535714 C83.5315158,9.07857143 83.3804642,9.37142857 83.3804642,10.0303571 C83.3804642,10.3232143 83.3804642,10.8357143 83.6825674,11.0553571 C83.8336189,11.2017857 84.1357221,11.3482143 84.3622994,11.3482143 L87.307805,11.3482143 C87.4588565,11.3482143 87.6099081,11.3482143 87.7609597,11.275 C87.9120112,11.1285714 87.9120112,11.0553571 87.9120112,10.9089286 L87.9120112,8.78571429 L84.3622994,8.78571429 L84.3622994,8.7125 Z" id="XMLID_314_"></path>
                    <path d="M91.461723,4.97857143 C91.461723,4.68571429 91.461723,4.24642857 91.7638261,3.95357143 C92.1414551,3.51428571 92.8211871,3.51428571 93.198816,3.51428571 L96.5974762,3.51428571 C97.5793114,3.51428571 98.4856208,3.5875 99.3164044,4.24642857 C99.8450849,4.68571429 100.222714,5.41785714 100.222714,6.6625 L100.222714,12.8125 L98.1079919,12.8125 L98.1079919,7.32142857 C98.1079919,6.73571429 98.0324661,6.07678571 97.730363,5.6375 C97.4282599,5.27142857 96.9751052,5.05178571 96.2198473,5.05178571 L94.0295996,5.05178571 C93.8785481,5.05178571 93.8030223,5.05178571 93.6519707,5.125 C93.5764449,5.27142857 93.5764449,5.41785714 93.5764449,5.49107143 L93.5764449,12.7392857 L91.461723,12.7392857 L91.461723,4.97857143 L91.461723,4.97857143 Z" id="XMLID_312_"></path>
                </g>
                <g id="Association" transform="translate(196.000000, 18.000000)" fill="#FFFFFF">
                    <path d="M5.21616714,1.83035714 C5.66974689,0.805357143 6.19892326,0.439285714 7.33287264,0.439285714 C8.39122539,0.439285714 8.99599839,0.805357143 9.44957814,1.83035714 L14.2121655,12.8857143 L11.7174769,12.8857143 L10.4323343,9.7375 L4.30900763,9.7375 L3.02386501,12.8857143 L0.529176376,12.8857143 L5.21616714,1.83035714 Z M4.91378063,8.12678571 L9.82756127,8.12678571 L7.78645239,3.14821429 C7.71085577,3.00178571 7.55966252,2.63571429 7.40846926,2.63571429 C7.25727601,2.63571429 7.10608276,3.00178571 7.03048614,3.14821429 L4.91378063,8.12678571 Z" id="XMLID_363_"></path>
                    <path d="M14.2877622,11.275 L19.7307192,11.275 C19.957509,11.275 20.2598955,11.275 20.4110888,10.9821429 C20.562282,10.7625 20.562282,10.5428571 20.562282,10.3964286 C20.562282,10.1767857 20.562282,9.88392857 20.2598955,9.66428571 C20.1087023,9.51785714 19.8819124,9.44464286 18.5211732,9.07857143 L16.6312575,8.56607143 C15.6485014,8.27321429 14.8925352,7.98035714 14.514552,7.46785714 C14.1365689,6.95535714 14.0609723,6.36964286 14.0609723,5.85714286 C14.0609723,5.41785714 14.1365689,4.75892857 14.514552,4.24642857 C15.0437284,3.51428571 16.0264845,3.44107143 16.8580474,3.44107143 L22.3010044,3.44107143 L22.3010044,5.125 L17.1604339,5.125 C16.933644,5.125 16.6312575,5.125 16.4044677,5.27142857 C16.1776778,5.49107143 16.1020812,5.71071429 16.1020812,5.93035714 C16.1020812,6.22321429 16.1020812,6.44285714 16.4044677,6.6625 C16.7068542,6.88214286 17.3116272,7.10178571 17.6140137,7.10178571 L19.6551225,7.6875 C20.7890719,7.98035714 21.5450382,8.27321429 22.0742145,8.7125 C22.5277943,9.225 22.6789875,9.88392857 22.6789875,10.3964286 C22.6789875,11.4946429 22.2254078,12.0803571 21.8474247,12.3732143 C21.3938449,12.7392857 20.7890719,12.7392857 20.3354922,12.7392857 L14.2121655,12.7392857 L14.2121655,11.275 L14.2877622,11.275 Z" id="XMLID_361_"></path>
                    <path d="M23.8129369,11.275 L29.2558939,11.275 C29.4826838,11.275 29.7850703,11.275 29.9362636,10.9821429 C30.0874568,10.7625 30.0874568,10.5428571 30.0874568,10.3964286 C30.0874568,10.1767857 30.0874568,9.88392857 29.7850703,9.66428571 C29.6338771,9.51785714 29.4070872,9.44464286 28.0463479,9.07857143 L26.1564323,8.56607143 C25.1736762,8.27321429 24.4177099,7.98035714 24.0397268,7.46785714 C23.6617437,6.95535714 23.586147,6.36964286 23.586147,5.85714286 C23.586147,5.41785714 23.6617437,4.75892857 24.0397268,4.24642857 C24.5689032,3.51428571 25.5516593,3.44107143 26.3832222,3.44107143 L31.8261792,3.44107143 L31.8261792,5.125 L26.6856087,5.125 C26.4588188,5.125 26.1564323,5.125 25.9296424,5.27142857 C25.7028526,5.49107143 25.6272559,5.71071429 25.6272559,5.93035714 C25.6272559,6.22321429 25.6272559,6.44285714 25.9296424,6.6625 C26.2320289,6.88214286 26.8368019,7.10178571 27.1391884,7.10178571 L29.1802973,7.6875 C30.3142467,7.98035714 31.0702129,8.27321429 31.5993893,8.7125 C32.0529691,9.225 32.2041623,9.88392857 32.2041623,10.3964286 C32.2041623,11.4946429 31.7505826,12.0803571 31.3725994,12.3732143 C30.9190197,12.7392857 30.3142467,12.7392857 29.8606669,12.7392857 L23.7373403,12.7392857 L23.7373403,11.275 L23.8129369,11.275 Z" id="XMLID_359_"></path>
                    <path d="M42.3341101,4.46607143 C43.4680595,5.49107143 43.5436561,7.24821429 43.5436561,8.2 C43.5436561,10.1767857 43.0144797,11.3482143 42.3341101,12.0071429 C41.2757573,12.9589286 39.537035,13.0321429 38.4786822,13.0321429 C37.3447328,13.0321429 35.6816071,12.9589286 34.6232543,12.0071429 C33.4893049,10.9821429 33.4137083,9.225 33.4137083,8.27321429 C33.4137083,7.24821429 33.5649016,5.49107143 34.6232543,4.46607143 C35.6816071,3.51428571 37.3447328,3.51428571 38.4786822,3.51428571 C39.537035,3.44107143 41.2757573,3.51428571 42.3341101,4.46607143 Z M36.1351868,10.6160714 C36.7399598,11.275 37.6471193,11.4214286 38.4786822,11.4214286 C39.3102451,11.4214286 40.141808,11.3482143 40.746581,10.6160714 C41.351354,9.95714286 41.351354,9.00535714 41.351354,8.2 C41.351354,7.54107143 41.4269506,6.44285714 40.746581,5.71071429 C40.141808,5.05178571 39.2346485,4.97857143 38.4030856,4.97857143 C37.722716,4.97857143 36.6643632,5.05178571 36.0595902,5.71071429 C35.4548172,6.36964286 35.4548172,7.54107143 35.4548172,8.2 C35.4548172,9.00535714 35.5304138,9.95714286 36.1351868,10.6160714 Z" id="XMLID_356_"></path>
                    <path d="M48.2306468,12.8857143 C47.4746806,12.8857143 46.2651346,12.7392857 45.3579751,11.7142857 C44.5264122,10.8357143 44.4508156,9.66428571 44.4508156,8.34642857 C44.4508156,7.24821429 44.4508156,5.6375 45.5091683,4.53928571 C45.8871515,4.17321429 46.7187143,3.51428571 48.4574367,3.51428571 L52.6152511,3.51428571 L52.6152511,5.125 L49.213403,5.125 C47.7770671,5.125 47.0966975,5.78392857 46.8699076,6.58928571 C46.7187143,7.10178571 46.7187143,8.05357143 46.7187143,8.34642857 C46.7187143,8.85892857 46.794311,9.81071429 47.0211008,10.25 C47.4746806,11.1285714 48.5330333,11.2017857 49.4401928,11.2017857 L52.9176376,11.2017857 L52.9176376,12.8125 L48.2306468,12.8125 L48.2306468,12.8857143 Z" id="XMLID_354_"></path>
                    <path d="M54.051587,2.19642857 L54.051587,0.585714286 L56.1682925,0.585714286 L56.1682925,2.19642857 L54.051587,2.19642857 Z M54.051587,3.5875 L56.1682925,3.5875 L56.1682925,12.8857143 L54.051587,12.8857143 L54.051587,3.5875 Z" id="XMLID_351_"></path>
                    <path d="M63.5767618,3.5875 C64.4083246,3.5875 65.1642909,3.88035714 65.542274,4.31964286 C65.9202571,4.75892857 66.2226436,5.49107143 66.2226436,6.51607143 L66.2226436,11.3482143 C66.2226436,11.7142857 66.2226436,12.2267857 65.8446605,12.5196429 C65.4666774,12.8857143 64.937501,12.8857143 64.4839213,12.8857143 L59.8725271,12.8857143 C59.3433507,12.8857143 58.6629811,12.8857143 58.1338047,12.4464286 C57.3778385,11.7875 57.3022419,10.6160714 57.3022419,9.88392857 C57.3022419,9.07857143 57.3778385,8.2 58.1338047,7.61428571 C58.7385777,7.10178571 59.4189474,7.10178571 59.8725271,7.10178571 L64.0303415,7.10178571 L64.0303415,6.44285714 C64.0303415,6.15 64.0303415,5.85714286 63.727955,5.56428571 C63.4255685,5.19821429 63.0475854,5.125 62.6696022,5.125 L57.9070149,5.125 L57.9070149,3.51428571 L63.5767618,3.51428571 L63.5767618,3.5875 Z M60.5528967,8.63928571 C60.4017035,8.63928571 60.0237204,8.63928571 59.7969305,8.93214286 C59.7213339,9.00535714 59.5701406,9.29821429 59.5701406,9.95714286 C59.5701406,10.25 59.5701406,10.7625 59.8725271,10.9821429 C60.0237204,11.1285714 60.3261069,11.275 60.5528967,11.275 L63.5011651,11.275 C63.6523584,11.275 63.8035516,11.275 63.9547449,11.2017857 C64.1059381,11.0553571 64.1059381,10.9821429 64.1059381,10.8357143 L64.1059381,8.7125 L60.5528967,8.7125 L60.5528967,8.63928571 Z" id="XMLID_348_"></path>
                    <path d="M71.8167939,12.8857143 C70.5316513,12.8857143 69.8512816,12.6660714 69.2465086,12.2267857 C68.6417356,11.7142857 68.2637525,11.0553571 68.2637525,9.88392857 L68.2637525,5.125 L66.9030133,5.125 L66.9030133,3.51428571 L68.2637525,3.51428571 L68.2637525,0.5125 L70.380458,0.5125 L70.380458,3.51428571 L73.1019365,3.51428571 L73.1019365,5.125 L70.380458,5.125 L70.380458,8.85892857 C70.380458,9.51785714 70.3048614,10.3964286 70.9096344,10.8357143 C71.3632141,11.2017857 72.194777,11.275 72.5727601,11.275 L73.1019365,11.275 L73.1019365,12.8857143 L71.8167939,12.8857143 L71.8167939,12.8857143 Z" id="XMLID_346_"></path>
                    <path d="M74.2358859,2.19642857 L74.2358859,0.585714286 L76.3525914,0.585714286 L76.3525914,2.19642857 L74.2358859,2.19642857 Z M74.2358859,3.5875 L76.3525914,3.5875 L76.3525914,12.8857143 L74.2358859,12.8857143 L74.2358859,3.5875 Z" id="XMLID_343_"></path>
                    <path d="M86.6337324,4.46607143 C87.7676818,5.49107143 87.8432784,7.24821429 87.8432784,8.2 C87.8432784,10.1767857 87.314102,11.3482143 86.6337324,12.0071429 C85.5753797,12.9589286 83.8366573,13.0321429 82.7783045,13.0321429 C81.6443552,13.0321429 79.9812294,12.9589286 78.9228767,12.0071429 C77.7889273,10.9821429 77.7133307,9.225 77.7133307,8.27321429 C77.7133307,7.24821429 77.8645239,5.49107143 78.9228767,4.46607143 C79.9812294,3.51428571 81.6443552,3.51428571 82.7783045,3.51428571 C83.8366573,3.44107143 85.5753797,3.51428571 86.6337324,4.46607143 Z M80.4348092,10.6160714 C81.0395822,11.275 81.9467417,11.4214286 82.7783045,11.4214286 C83.6098674,11.4214286 84.4414303,11.3482143 85.0462033,10.6160714 C85.6509763,9.95714286 85.6509763,9.00535714 85.6509763,8.2 C85.6509763,7.54107143 85.7265729,6.44285714 85.0462033,5.71071429 C84.4414303,5.05178571 83.5342708,4.97857143 82.7027079,4.97857143 C82.0223383,4.97857143 80.9639855,5.05178571 80.3592125,5.71071429 C79.7544395,6.36964286 79.7544395,7.54107143 79.7544395,8.2 C79.7544395,9.00535714 79.8300362,9.95714286 80.4348092,10.6160714 Z" id="XMLID_340_"></path>
                    <path d="M89.0528244,4.97857143 C89.0528244,4.68571429 89.0528244,4.24642857 89.3552109,3.95357143 C89.7331941,3.51428571 90.4135637,3.51428571 90.7915468,3.51428571 L94.1933949,3.51428571 C95.1761511,3.51428571 96.0833106,3.5875 96.9148734,4.24642857 C97.4440498,4.68571429 97.8976296,5.41785714 97.8976296,6.6625 L97.8976296,12.8125 L95.7809241,12.8125 L95.7809241,7.32142857 C95.7809241,6.73571429 95.7053274,6.07678571 95.4029409,5.6375 C95.1005544,5.27142857 94.6469747,5.05178571 93.8910084,5.05178571 L91.6987063,5.05178571 C91.5475131,5.05178571 91.4719164,5.05178571 91.3207232,5.125 C91.2451266,5.27142857 91.2451266,5.41785714 91.2451266,5.49107143 L91.2451266,12.7392857 L89.1284211,12.7392857 L89.1284211,4.97857143 L89.0528244,4.97857143 Z" id="XMLID_338_"></path>
                </g>
                <g id="25-years" fill="#FFFFFF">
                    <path d="M84.8512381,84.8482143 L0.379817539,84.8482143 L0.379817539,0.455357143 L84.8512381,0.455357143 L84.8512381,84.8482143 Z M1.36734314,83.7857143 L83.787749,83.7857143 L83.787749,1.44196429 L1.36734314,1.44196429 L1.36734314,83.7857143 Z" id="Round-Border"></path>
                    <path d="M57.3170732,66.1014121 L63.3384146,66.1014121 C63.5670732,66.1014121 63.8719512,66.0250321 64.1006098,65.7958922 C64.3292683,65.5667522 64.3292683,65.2612323 64.3292683,65.1084724 C64.3292683,64.8029525 64.2530488,64.5738126 64.0243902,64.2682927 C63.8719512,64.1155327 63.5670732,63.9627728 62.0426829,63.5808729 L59.9847561,63.0462131 C58.8414634,62.7406932 58.0792683,62.3587933 57.6219512,61.7477535 C57.1646341,61.1367137 57.0884146,60.449294 57.0884146,59.9146341 C57.0884146,59.3799743 57.1646341,58.6925546 57.6219512,58.0815148 C58.2317073,57.241335 59.2987805,57.1649551 60.2134146,57.1649551 L66.3109756,57.1649551 L66.3109756,58.9980745 L60.5945122,58.9980745 C60.3658537,58.9980745 60.0609756,58.9980745 59.7560976,59.2272144 C59.4512195,59.4563543 59.4512195,59.6854942 59.4512195,59.9910141 C59.4512195,60.296534 59.4512195,60.5256739 59.8323171,60.8311938 C60.1371951,61.0603338 60.8993902,61.2894737 61.2042683,61.3658537 L63.4908537,62.0532734 C64.7865854,62.4351733 65.625,62.7406932 66.1585366,63.275353 C66.6920732,63.8863928 66.8445122,64.6501926 66.8445122,65.2612323 C66.8445122,66.5596919 66.3871951,67.2471117 65.929878,67.5526316 C65.3963415,67.9345315 64.7103659,68.0109114 64.1768293,68.0109114 L57.3170732,68.0109114 L57.3170732,66.1014121 L57.3170732,66.1014121 Z" id="XMLID_272_"></path>
                    <path d="M50.6859756,61.2130937 C50.6859756,60.0673941 50.9146341,58.8453145 51.8292683,58.0815148 C52.820122,57.241335 54.1920732,57.1649551 55.0304878,57.1649551 L56.6310976,57.1649551 L56.6310976,58.9980745 L55.6402439,58.9980745 C55.0304878,58.9980745 54.1920732,59.0744544 53.5823171,59.7618742 C53.125,60.296534 53.0487805,61.0603338 53.0487805,61.9005135 L53.0487805,68.0109114 L50.6859756,68.0109114 L50.6859756,61.2130937 Z" id="XMLID_274_"></path>
                    <path d="M46.0365854,57.1649551 C46.9512195,57.1649551 47.7896341,57.470475 48.2469512,58.0051348 C48.7042683,58.4634146 49.0091463,59.3799743 49.0091463,60.5256739 L49.0091463,66.1014121 C49.0091463,66.4833119 48.9329268,67.0943517 48.5518293,67.4762516 C48.1707317,67.8581515 47.5609756,67.9345315 47.1036585,67.9345315 L41.9969512,67.9345315 C41.3871951,67.9345315 40.625,67.9345315 40.0152439,67.3998716 C39.1768293,66.6360719 39.1006098,65.2612323 39.1006098,64.4974326 C39.1006098,63.5044929 39.1768293,62.5879332 40.0152439,61.9005135 C40.7012195,61.2894737 41.3871951,61.2894737 41.9969512,61.2894737 L46.6463415,61.2894737 L46.6463415,60.5256739 C46.6463415,60.220154 46.570122,59.8382542 46.3414634,59.5327343 C46.0365854,59.1508344 45.5792683,59.0744544 45.1981707,59.0744544 L39.8628049,59.0744544 L39.8628049,57.241335 L46.0365854,57.241335 L46.0365854,57.1649551 Z M42.6829268,63.0462131 C42.5304878,63.0462131 42.0731707,63.0462131 41.8445122,63.428113 C41.7682927,63.5044929 41.6158537,63.8100128 41.6158537,64.5738126 C41.6158537,64.8793325 41.6920732,65.4903723 41.9207317,65.7958922 C42.0731707,65.9486521 42.3780488,66.1014121 42.6829268,66.1014121 L45.9603659,66.1014121 C46.1128049,66.1014121 46.3414634,66.1014121 46.4939024,65.9486521 C46.6463415,65.7958922 46.6463415,65.6431322 46.6463415,65.4903723 L46.6463415,63.0462131 L42.6829268,63.0462131 Z" id="XMLID_276_"></path>
                    <path d="M31.7835366,67.9345315 C30.7164634,67.9345315 29.4207317,67.8581515 28.5060976,66.5596919 C27.820122,65.5667522 27.7439024,64.0391528 27.7439024,62.6643132 C27.7439024,60.6784339 27.820122,59.1508344 29.0396341,58.1578947 C30.1829268,57.1649551 32.0121951,57.1649551 33.0792683,57.1649551 C34.2987805,57.1649551 35.6707317,57.241335 36.6615854,57.8523748 C37.8810976,58.6161746 38.1859756,59.9910141 38.1859756,61.3658537 C38.1859756,61.9005135 38.1097561,62.5115533 37.652439,62.9698331 C37.347561,63.275353 36.8902439,63.351733 36.5091463,63.351733 L30.2591463,63.351733 C30.2591463,63.8100128 30.3353659,64.4974326 30.4115854,64.8029525 C30.7164634,65.9486521 31.7073171,66.1014121 32.5457317,66.1014121 L37.804878,66.1014121 L37.804878,67.9345315 L31.7835366,67.9345315 L31.7835366,67.9345315 Z M35.0609756,61.5186136 C35.5182927,61.5186136 35.5945122,61.1367137 35.5945122,60.9075738 C35.5945122,60.220154 35.2134146,59.7618742 34.9085366,59.4563543 C34.2987805,58.9980745 33.5365854,58.9980745 32.8506098,58.9980745 C32.2408537,58.9980745 31.25,58.9980745 30.5640244,59.6854942 C30.1067073,60.220154 30.1067073,60.8311938 30.1067073,61.5186136 L35.0609756,61.5186136 L35.0609756,61.5186136 Z" id="XMLID_279_"></path>
                    <polygon id="XMLID_282_" points="21.2652439 71.4480103 18.8262195 71.4480103 20.5030488 67.9345315 15.7012195 57.1649551 18.1402439 57.1649551 21.570122 65.4139923 25.2286585 57.1649551 27.6676829 57.1649551"></polygon>
                    <path d="M44.3147344,43.7872944 L58.9902272,43.7872944 C59.8933344,43.7872944 61.4737721,43.7125638 62.3016204,42.4421441 C62.7531741,41.6948383 62.9789509,40.1254963 62.9789509,38.9298071 C62.9789509,38.0330403 62.9036919,36.5384288 62.3016204,35.7911231 C62.0005847,35.3427396 61.1727364,34.5954339 59.4417808,34.5954339 L50.7117441,34.5954339 C49.4323421,34.5954339 47.3250919,34.5954339 46.0456899,33.698667 C44.2394754,32.4282473 44.1642165,30.036869 44.1642165,28.9159104 L44.1642165,20.9197391 C44.1642165,19.3503971 44.766288,18.4536302 45.2178416,18.0052467 C46.2714668,16.8842881 47.9271634,16.8842881 48.5292349,16.8842881 L68.3975944,16.8842881 L68.3975944,21.6670448 L51.9158871,21.6670448 C51.4643334,21.6670448 50.8622619,21.7417754 50.6364851,22.0406977 C50.3354494,22.33962 50.3354494,22.9374645 50.3354494,23.2363868 L50.3354494,27.1971072 C50.3354494,27.7949518 50.3354494,28.7664492 50.8622619,29.2895632 C51.3890745,29.8126773 52.4426996,29.8874078 53.0447711,29.8874078 L62.1511026,29.8874078 C64.1078349,29.8874078 66.1398263,30.2610607 67.7202639,32.2787862 C69.3759606,34.2965116 69.4512195,36.6131594 69.4512195,38.780346 C69.4512195,41.6201078 69.2254427,44.8335224 67.1934514,46.7765173 C65.236719,48.570051 62.6779151,48.570051 60.9469596,48.570051 L44.3147344,48.570051 L44.3147344,43.7872944 Z" id="XMLID_266_"></path>
                    <path d="M18.1246241,48.4953205 C17.5225526,48.4953205 14.662713,48.4205899 14.662713,44.6840613 C14.662713,42.2179524 15.7163381,41.1717243 16.6947043,40.4991492 L31.8970097,30.4852524 C33.8537421,29.2148327 34.0042599,27.7202212 34.0042599,25.9266875 C34.0042599,24.3573454 33.8537421,23.3111174 33.3269295,22.6385423 C32.8001169,21.9659671 31.5959739,21.5175837 30.0155363,21.5175837 L16.8452222,21.5175837 L16.8452222,16.734827 L32.8001169,16.734827 C34.3052957,16.734827 36.6383228,16.8842881 38.3692783,18.6030913 C40.1754928,20.3218945 40.3260107,22.7880034 40.3260107,25.1793817 C40.3260107,26.8981849 40.2507518,29.4390244 38.8208319,31.4567499 C37.9929836,32.652439 36.9393585,33.3250142 35.9609923,33.9975893 L22.7154193,42.9652581 C22.5649014,43.0399887 22.1886067,43.2641804 22.1886067,43.4883721 C22.1886067,43.5631027 22.2638657,43.7872944 22.5649014,43.7872944 L38.8960909,43.7872944 L38.8960909,48.570051 L18.1246241,48.570051 L18.1246241,48.4953205 Z" id="XMLID_268_"></path>
                </g>
            </g>
        </g>
    </g>
</svg>
