<?xml version="1.0" encoding="UTF-8"?>
<svg width="18px" height="18px" viewBox="0 0 18 18" version="1.1" xmlns="http://www.w3.org/2000/svg" xmlns:xlink="http://www.w3.org/1999/xlink">
    <!-- Generator: Sketch 57.1 (83088) - https://sketch.com -->
    <title>Icons / Line / Heart Copy</title>
    <desc>Created with Sketch.</desc>
    <g id="AEB-APP" stroke="none" stroke-width="1" fill="none" fill-rule="evenodd">
        <g id="50.-Events---full" transform="translate(-19.000000, -447.000000)" fill="#B5BBC6">
            <g id="Group" transform="translate(16.000000, 413.000000)">
                <g id="Icons-/-Line-/-Press" transform="translate(0.000000, 31.000000)">
                    <path d="M16.2620991,3.42857143 C16.3705539,3.42857143 16.4440233,3.46355685 16.5174927,3.53702624 L16.5174927,3.53702624 L20.4568513,7.47638484 C20.5303207,7.54985423 20.5653061,7.62332362 20.5653061,7.73177843 L20.5653061,7.73177843 L20.5653061,14.7358601 C20.6002915,14.9562682 20.4568513,15.0997085 20.2364431,15.0962099 L20.2364431,15.0962099 L18.777551,15.0962099 L18.777551,16.3731778 C18.777551,17.0658892 18.1932945,17.6501458 17.4655977,17.6501458 L17.4655977,17.6501458 L16.9548105,17.6501458 L16.9548105,19.8402332 L17.6825073,19.8402332 L17.6825073,20.5714286 L15.4959184,20.5714286 L15.4959184,19.8402332 L16.2236152,19.8402332 L16.2236152,17.6501458 L15.6778426,17.6501458 C14.9501458,17.6501458 14.3658892,17.0693878 14.3658892,16.3381924 L14.3658892,16.3381924 L14.3658892,15.0997085 L3.79329446,15.0997085 C3.57638484,15.0997085 3.42944606,14.9562682 3.42944606,14.7358601 L3.42944606,14.7358601 L3.42944606,3.79241983 C3.42944606,3.5755102 3.5728863,3.42857143 3.79329446,3.42857143 L3.79329446,3.42857143 Z M16.2236152,11.8180758 L15.712828,11.8180758 C15.383965,11.8180758 15.1285714,12.0734694 15.1285714,12.4023324 L15.1285714,12.4023324 L15.1285714,16.3766764 C15.1285714,16.7055394 15.383965,16.9609329 15.712828,16.9609329 L15.712828,16.9609329 L17.5005831,16.9609329 C17.8294461,16.9609329 18.0848397,16.7055394 18.0848397,16.3766764 L18.0848397,16.3766764 L18.0813411,16.3766764 L18.0813411,12.4023324 C18.0813411,12.0734694 17.8259475,11.8180758 17.4970845,11.8180758 L17.4970845,11.8180758 L16.951312,11.8180758 L16.951312,14.3720117 L16.2236152,14.3720117 L16.2236152,11.8180758 Z M15.9332362,4.15976676 L4.19212828,4.15976676 L4.19212828,14.3720117 L14.3658892,14.3720117 L14.3658892,12.4023324 C14.3658892,11.6746356 14.9501458,11.090379 15.6778426,11.090379 L15.6778426,11.090379 L17.4655977,11.090379 C18.1932945,11.090379 18.777551,11.671137 18.777551,12.4023324 L18.777551,12.4023324 L18.777551,14.3685131 L19.8690962,14.3685131 L19.8690962,8.09562682 L16.2970845,8.09562682 C16.0801749,8.09562682 15.9332362,7.95218659 15.9332362,7.73177843 L15.9332362,7.73177843 L15.9332362,4.15976676 Z M11.8504373,11.9650146 L11.8504373,12.6962099 L5.65102041,12.6962099 L5.65102041,11.9650146 L11.8504373,11.9650146 Z M13.3093294,9.55801749 L13.3093294,10.2892128 L5.65102041,10.2892128 L5.65102041,9.55801749 L13.3093294,9.55801749 Z M13.8516035,5.25131195 C14.0559184,5.25131195 14.2132128,5.29833236 14.3431907,5.33505306 L14.4358601,5.35976676 L14.3274052,5.61516035 C14.2574344,5.58017493 14.0755102,5.50670554 13.855102,5.50670554 C13.4912536,5.50670554 13.3827988,5.7271137 13.3827988,5.9090379 C13.3827988,6.16443149 13.5297376,6.2728863 13.893586,6.41982507 C14.3309038,6.60174927 14.5478134,6.78367347 14.5443149,7.18600583 C14.5443149,7.58833819 14.2504373,7.91720117 13.6311953,7.91720117 C13.4268805,7.91720117 13.2225656,7.87018076 13.0737796,7.81375627 L12.9734694,7.77026239 L13.0469388,7.44139942 C13.1938776,7.54985423 13.4107872,7.62332362 13.6311953,7.62332362 C13.9565598,7.62332362 14.1769679,7.44139942 14.1769679,7.18600583 C14.1769679,6.93061224 14.0335277,6.82215743 13.7046647,6.67521866 C13.3023324,6.52827988 13.0119534,6.30787172 13.0119534,5.94402332 C13.0119534,5.54169096 13.3408163,5.25131195 13.8516035,5.25131195 Z M11.990379,5.25131195 C12.1946939,5.25131195 12.3519883,5.29833236 12.4819662,5.33505306 L12.5746356,5.35976676 L12.4661808,5.61516035 C12.3962099,5.58017493 12.2142857,5.50670554 11.9938776,5.50670554 C11.6300292,5.50670554 11.5215743,5.7271137 11.5215743,5.9090379 C11.5215743,6.16443149 11.6685131,6.2728863 12.0323615,6.41982507 C12.4696793,6.60174927 12.6900875,6.78367347 12.6900875,7.18600583 C12.6900875,7.58833819 12.3962099,7.91720117 11.7769679,7.91720117 C11.5726531,7.91720117 11.3683382,7.87018076 11.2195522,7.81375627 L11.119242,7.77026239 L11.1927114,7.44139942 C11.3396501,7.54985423 11.5565598,7.62332362 11.7769679,7.62332362 C12.1058309,7.62332362 12.3227405,7.44139942 12.3157434,7.18600583 C12.3157434,6.93061224 12.1723032,6.82215743 11.8434402,6.67521866 C11.4411079,6.52827988 11.1507289,6.30787172 11.1507289,5.94402332 C11.1507289,5.54169096 11.4795918,5.25131195 11.990379,5.25131195 Z M10.7204082,5.32478134 L10.7204082,5.61865889 L9.6638484,5.61865889 L9.6638484,6.41982507 L10.6469388,6.41982507 L10.6469388,6.67521866 L9.69883382,6.67521866 L9.69883382,7.58833819 L10.7938776,7.58833819 L10.7938776,7.8787172 L9.33498542,7.8787172 L9.33498542,5.32478134 L10.7204082,5.32478134 Z M7.94606414,5.28629738 C8.30991254,5.28629738 8.52682216,5.35976676 8.67376093,5.50670554 C8.82069971,5.61865889 8.8941691,5.80058309 8.8941691,5.98250729 C8.8941691,6.31137026 8.67725948,6.53177843 8.42186589,6.64023324 C8.60379009,6.71370262 8.75072886,6.89562682 8.78571429,7.15102041 C8.85,7.46938776 8.91428571,7.70471939 8.95279018,7.80779656 L8.96763848,7.84373178 L8.63877551,7.84373178 C8.60379009,7.77026239 8.5303207,7.55335277 8.45685131,7.2244898 C8.39154519,6.901069 8.26818918,6.77667638 8.03764052,6.72845505 L7.94606414,6.71370262 L7.65568513,6.71370262 L7.65568513,7.80174927 L7.32682216,7.80174927 L7.32682216,5.3212828 C7.50874636,5.28629738 7.72565598,5.28629738 7.94606414,5.28629738 Z M5.90641399,5.28979592 C6.23177843,5.28979592 6.48717201,5.36326531 6.63411079,5.51020408 C6.78104956,5.61865889 6.85451895,5.80058309 6.85451895,6.02099125 C6.85451895,6.23790087 6.78104956,6.41982507 6.67259475,6.56676385 C6.49067055,6.74868805 6.196793,6.85714286 5.87142857,6.85714286 C5.79008746,6.85714286 5.72842566,6.85714286 5.67168367,6.84238338 L5.61603499,6.82215743 L5.61603499,7.84023324 L5.28717201,7.84023324 L5.28717201,5.32478134 C5.43411079,5.28979592 5.65102041,5.28979592 5.90641399,5.28979592 Z M16.6609329,4.70553936 L16.6609329,7.36793003 L19.3233236,7.36793003 L16.6609329,4.70553936 Z M5.94489796,5.5451895 C5.83469388,5.5451895 5.74613703,5.5451895 5.67775146,5.55994898 L5.61603499,5.58017493 L5.61603499,6.56676385 C5.68600583,6.60174927 5.75947522,6.60174927 5.90641399,6.60174927 C6.30874636,6.60174927 6.56413994,6.41982507 6.56413994,6.05597668 C6.56413994,5.7271137 6.30874636,5.5451895 5.94489796,5.5451895 Z M7.9845481,5.5451895 C7.86699708,5.5451895 7.74944606,5.5451895 7.68921516,5.56310204 L7.65568513,5.58017493 L7.65568513,6.496793 L7.9845481,6.496793 C8.3483965,6.496793 8.56880466,6.31137026 8.56880466,6.02099125 C8.56880466,5.69212828 8.31341108,5.5451895 7.9845481,5.5451895 Z" id="Combined-Shape"></path>
                </g>
            </g>
        </g>
    </g>
</svg>