<?xml version="1.0" encoding="UTF-8"?>
<svg width="18px" height="18px" viewBox="0 0 18 18" version="1.1" xmlns="http://www.w3.org/2000/svg" xmlns:xlink="http://www.w3.org/1999/xlink">
    <!-- Generator: Sketch 56.3 (81716) - https://sketch.com -->
    <title>Icons / Filled / Menu Copy 2</title>
    <desc>Created with Sketch.</desc>
    <g id="AEB-APP" stroke="none" stroke-width="1" fill="none" fill-rule="evenodd">
        <g id="11.-News---full" transform="translate(-337.000000, -53.000000)" fill="#FFFFFF">
            <g id="Icons-/-Filled-/-Share" transform="translate(334.000000, 50.000000)">
                <path d="M17.5103631,14.4497631 C16.7185118,14.4489883 15.9574282,14.756349 15.3881858,15.3067963 L9.52771139,12.3765591 C9.52771139,12.2541258 9.55219805,12.1276114 9.55219805,12.0010969 C9.55219805,11.8745825 9.55219805,11.7480681 9.52771139,11.6256348 L15.3881858,8.69539759 C16.4365924,9.70410933 18.0501739,9.83544592 19.2479068,9.00955749 C20.4456396,8.18366906 20.8965116,6.62880278 20.3264021,5.29028464 C19.7562925,3.9517665 18.32276,3.19951692 16.8973623,3.49088783 C15.4719645,3.78225873 14.4486325,5.0367252 14.4495304,6.49159803 C14.4495304,6.61811245 14.4495304,6.74462686 14.4740171,6.86706017 L8.61354268,9.79729737 C7.40696396,8.63433301 5.48951229,8.65786025 4.3118318,9.85007959 C3.13415131,11.0422989 3.13415131,12.9598949 4.3118318,14.1521143 C5.48951229,15.3443336 7.40696396,15.3678609 8.61354268,14.2048965 L14.4740171,17.1351337 C14.4740171,17.257567 14.4495304,17.3840814 14.4495304,17.5105958 C14.4495304,19.2010471 15.8199119,20.5714286 17.5103631,20.5714286 C19.2008144,20.5714286 20.5711959,19.2010471 20.5711959,17.5105958 C20.5711959,15.8201446 19.2008144,14.4497631 17.5103631,14.4497631 Z" id="11-Share"></path>
            </g>
        </g>
    </g>
</svg>