<?xml version="1.0" encoding="UTF-8"?>
<svg width="18px" height="18px" viewBox="0 0 18 18" version="1.1" xmlns="http://www.w3.org/2000/svg" xmlns:xlink="http://www.w3.org/1999/xlink">
    <!-- Generator: Sketch 57.1 (83088) - https://sketch.com -->
    <title>Icons / Line / Heart</title>
    <desc>Created with Sketch.</desc>
    <g id="AEB-APP" stroke="none" stroke-width="1" fill="none" fill-rule="evenodd">
        <g id="50.-Events---full" transform="translate(-19.000000, -416.000000)" fill="#B5BBC6">
            <g id="Group" transform="translate(16.000000, 413.000000)">
                <g id="Icons-/-Line-/-Message">
                    <path d="M12.0004405,3.42857143 C16.7340665,3.42857143 20.5714286,7.2659335 20.5714286,11.9995595 C20.5714286,16.7331855 16.7340665,20.5705476 12.0004405,20.5705476 C10.769579,20.5705476 9.57472144,20.3106133 8.47732092,19.8151653 L3.98389961,20.5640689 C3.6075269,20.6267977 3.31393651,20.2435055 3.47253367,19.8964633 L4.89216563,16.7900259 C3.94507673,15.3875803 3.4294524,13.7318448 3.4294524,11.9995595 C3.4294524,7.2659335 7.26681448,3.42857143 12.0004405,3.42857143 Z M12.0004405,4.38090344 C7.79277292,4.38090344 4.38178441,7.79189195 4.38178441,11.9995595 C4.38178441,13.6251042 4.89155423,15.1725953 5.82413739,16.4611941 C5.92466629,16.6001002 5.94274869,16.782329 5.87147843,16.9382825 L4.71111036,19.4773988 L8.46552092,18.8516637 C8.5612761,18.8357046 8.65962167,18.8493937 8.7473784,18.8908969 C9.75541835,19.3676329 10.8596812,19.6182156 12.0004405,19.6182156 C16.2081081,19.6182156 19.6190966,16.2072271 19.6190966,11.9995595 C19.6190966,7.79189195 16.2081081,4.38090344 12.0004405,4.38090344 Z M13.5804459,14.1206626 C13.8075643,14.1206626 13.9916801,14.3047785 13.9916801,14.5318969 C13.9916801,14.7590153 13.8075643,14.9431312 13.5804459,14.9431312 L9.4681031,14.9431312 C9.24098468,14.9431312 9.05686882,14.7590153 9.05686882,14.5318969 C9.05686882,14.3047785 9.24098468,14.1206626 9.4681031,14.1206626 L13.5804459,14.1206626 Z M15.225383,11.653257 C15.4525014,11.653257 15.6366173,11.8373728 15.6366173,12.0644912 C15.6366173,12.2916097 15.4525014,12.4757255 15.225383,12.4757255 L9.4681031,12.4757255 C9.24098468,12.4757255 9.05686882,12.2916097 9.05686882,12.0644912 C9.05686882,11.8373728 9.24098468,11.653257 9.4681031,11.653257 L15.225383,11.653257 Z M15.225383,9.1858513 C15.4525014,9.1858513 15.6366173,9.36996716 15.6366173,9.59708558 C15.6366173,9.824204 15.4525014,10.0083199 15.225383,10.0083199 L9.4681031,10.0083199 C9.24098468,10.0083199 9.05686882,9.824204 9.05686882,9.59708558 C9.05686882,9.36996716 9.24098468,9.1858513 9.4681031,9.1858513 L15.225383,9.1858513 Z" id="Path-2"></path>
                </g>
            </g>
        </g>
    </g>
</svg>